<?xml version="1.0" encoding="UTF-8" standalone="no"?>
<svg width="12px" height="11px" viewBox="0 0 12 11" version="1.1" xmlns="http://www.w3.org/2000/svg" xmlns:xlink="http://www.w3.org/1999/xlink">
    <!-- Generator: Sketch 3.8.3 (29802) - http://www.bohemiancoding.com/sketch -->
    <title>Group</title>
    <desc>Created with Sketch.</desc>
    <defs></defs>
    <g id="Symbols" stroke="none" stroke-width="1" fill="none" fill-rule="evenodd">
        <g id="asideAgent" transform="translate(-34.000000, -276.000000)">
            <g id="Group-2">
                <g id="dashboard-copy-3" transform="translate(32.000000, 272.000000)">
                    <g id="Group-3">
                        <g id="Group" transform="translate(0.000000, 4.000000)">
                            <rect id="Rectangle-path" x="0" y="4" width="5.33333333" height="5.33333333"></rect>
                            <path d="M3.19755556,4.29288889 C2.57022222,4.29288889 2.06222222,4.80044444 2.06222222,5.42822222 L2.06222222,8.97688889 C2.06222222,9.604 2.57044444,10.1122222 3.19755556,10.1122222 C3.824,10.1122222 4.33222222,9.604 4.33222222,8.97688889 L4.33222222,5.42822222 C4.33222222,4.80044444 3.824,4.29288889 3.19755556,4.29288889 L3.19755556,4.29288889 Z" id="Shape" fill="#FFFFFF"></path>
                            <path d="M6.41,1.89822222 C5.78288889,1.89822222 5.27466667,2.40688889 5.27466667,3.03355556 L5.27466667,8.97666667 C5.27466667,9.60377778 5.78288889,10.112 6.41,10.112 C7.03666667,10.112 7.54466667,9.60377778 7.54466667,8.97666667 L7.54466667,3.03377778 C7.54466667,2.40688889 7.03666667,1.89822222 6.41,1.89822222 L6.41,1.89822222 Z" id="Shape" fill="#FFFFFF"></path>
                            <path d="M9.622,2.862 C8.99466667,2.862 8.48666667,3.37 8.48666667,3.99733333 L8.48666667,8.97666667 C8.48666667,9.60377778 8.99466667,10.112 9.622,10.112 C10.2484444,10.112 10.7573333,9.60377778 10.7573333,8.97666667 L10.7573333,3.99733333 C10.7573333,3.37 10.2484444,2.862 9.622,2.862 L9.622,2.862 Z" id="Shape" fill="#FFFFFF"></path>
                            <path d="M12.8344444,0.109777778 C12.208,0.109777778 11.7,0.618 11.7,1.24488889 L11.7,8.97688889 C11.7,9.604 12.208,10.1122222 12.8344444,10.1122222 C13.4617778,10.1122222 13.97,9.604 13.97,8.97688889 L13.97,1.24488889 C13.97,0.618 13.4617778,0.109777778 12.8344444,0.109777778 L12.8344444,0.109777778 Z" id="Shape" fill="#FFFFFF"></path>
                        </g>
                    </g>
                </g>
            </g>
        </g>
    </g>
</svg>