<svg id="SvgjsSvg1027" xmlns="http://www.w3.org/2000/svg" version="1.1" xmlns:xlink="http://www.w3.org/1999/xlink" xmlns:svgjs="http://svgjs.com/svgjs" width="11" height="7.581625131304108"><defs id="SvgjsDefs1028"></defs><path id="SvgjsPath1029" d="M939.23 37.13L935 41.370000000000005L930.77 37.13C930.59 36.96 930.31 36.96 930.13 37.13C929.96 37.31 929.96 37.59 930.13 37.760000000000005L934.68 42.32000000000001C934.77 42.400000000000006 934.89 42.45000000000001 935 42.45000000000001C935.11 42.45000000000001 935.23 42.40000000000001 935.32 42.32000000000001L939.87 37.77000000000001C940.04 37.59000000000001 940.04 37.31000000000001 939.87 37.13000000000001C939.69 36.96000000000001 939.41 36.96000000000001 939.23 37.13000000000001Z " fill="#d4d6d7" fill-opacity="1" transform="matrix(1,0,0,1,-929.5,-36.209187434347946)"></path><path id="SvgjsPath1030" d="M939.23 37.13L935 41.370000000000005L930.77 37.13C930.59 36.96 930.31 36.96 930.13 37.13C929.96 37.31 929.96 37.59 930.13 37.760000000000005L934.68 42.32000000000001C934.77 42.400000000000006 934.89 42.45000000000001 935 42.45000000000001C935.11 42.45000000000001 935.23 42.40000000000001 935.32 42.32000000000001L939.87 37.77000000000001C940.04 37.59000000000001 940.04 37.31000000000001 939.87 37.13000000000001C939.69 36.96000000000001 939.41 36.96000000000001 939.23 37.13000000000001Z " fill-opacity="0" fill="#ffffff" stroke-dasharray="0" stroke-linejoin="miter" stroke-linecap="butt" stroke-opacity="1" stroke="#d4d6d7" stroke-miterlimit="50" stroke-width="1" transform="matrix(1,0,0,1,-929.5,-36.209187434347946)"></path></svg>