<?xml version="1.0" encoding="UTF-8" standalone="no"?>
<svg width="22px" height="21px" viewBox="0 0 22 21" version="1.1" xmlns="http://www.w3.org/2000/svg" xmlns:xlink="http://www.w3.org/1999/xlink">
    <!-- Generator: Sketch 3.8.3 (29802) - http://www.bohemiancoding.com/sketch -->
    <title>Shape</title>
    <desc>Created with Sketch.</desc>
    <defs></defs>
    <g id="agentDashboard" stroke="none" stroke-width="1" fill="none" fill-rule="evenodd">
        <g id="agentManageUsersAdd" transform="translate(-389.000000, -300.000000)" stroke="#FFFFFF" fill="#FFFFFF">
            <g id="Group" transform="translate(360.000000, 280.000000)">
                <path d="M39.991146,21 C39.9734379,21 39.9557298,21 39.9468758,21.008854 C39.8937516,21.0177081 39.8494814,21.0442702 39.8229193,21.0708323 L35.3943208,25.5136605 C35.2792183,25.5933468 35.2703643,25.7795978 35.3677587,25.8769922 C35.465153,25.9835568 35.6510878,25.9747028 35.7399443,25.8592841 L39.7435492,21.8689603 C39.7435492,21.9663547 39.7524032,22.0906274 39.7524032,22.258854 C39.7524032,22.6313559 39.7524032,23.1543764 39.7612573,23.7839615 C39.7612573,25.0342778 39.7524032,26.6748039 39.7524032,28.3241842 C39.7435492,31.6229446 39.7435492,34.8948267 39.7435492,34.8948267 C39.7435492,35.0279535 39.8586517,35.1519099 39.9914622,35.1519099 C40.1242727,35.1519099 40.2393752,35.0276372 40.2393752,34.8948267 C40.2393752,34.8948267 40.2482292,31.6226284 40.2482292,28.3241842 C40.2482292,26.6744877 40.2570832,25.0251075 40.2570832,23.7747913 C40.2570832,23.1455224 40.2482292,22.6310397 40.2482292,22.2585378 C40.2482292,22.0811409 40.2393752,21.9571844 40.2393752,21.8506198 L44.2518341,25.8589679 C44.3400582,25.9740703 44.5174551,25.9832406 44.6237035,25.8766759 C44.7214141,25.7789653 44.7122439,25.5930306 44.5971414,25.5133443 L40.1685429,21.0705161 C40.1239565,21.0268783 40.0619782,21 39.991146,21 L39.991146,21 L39.991146,21 Z M31.9042499,31.5438907 C30.8503036,31.5438907 30,32.403997 30,33.4592082 L30,37.6092208 C30,38.6644321 30.8503036,39.5248545 31.9042499,39.5248545 L48.0865798,39.5248545 C49.1408424,39.5248545 50,38.6644321 50,37.6092208 L50,33.458892 C50,32.4036807 49.1408424,31.5435745 48.0865798,31.5435745 L44.8713003,31.5435745 C44.7384898,31.5435745 44.6233873,31.6678472 44.6233873,31.8006577 C44.6233873,31.9337845 44.7384898,32.0488869 44.8713003,32.0488869 L48.0865798,32.0488869 C48.8660511,32.0488869 49.4950038,32.669618 49.4950038,33.458892 L49.4950038,37.6089046 C49.4950038,38.3981786 48.8660511,39.0274475 48.0865798,39.0274475 L31.9042499,39.0274475 C31.1247786,39.0274475 30.495826,38.3981786 30.495826,37.6089046 L30.495826,33.458892 C30.495826,32.669618 31.1247786,32.0488869 31.9042499,32.0488869 L35.1195295,32.0488869 C35.25234,32.0488869 35.3674424,31.9337845 35.3674424,31.8006577 C35.3674424,31.6678472 35.25234,31.5435745 35.1195295,31.5435745 L31.9042499,31.5435745 L31.9042499,31.5438907 L31.9042499,31.5438907 Z" id="Shape"></path>
            </g>
        </g>
    </g>
</svg>