<svg id="SvgjsSvg1008" xmlns="http://www.w3.org/2000/svg" version="1.1" xmlns:xlink="http://www.w3.org/1999/xlink" xmlns:svgjs="http://svgjs.com/svgjs" width="18" height="12"><defs id="SvgjsDefs1009"></defs><path id="SvgjsPath1010" d="M463.09 281.26L463.09 275.55C463.09 275.24 462.84999999999997 275 462.54999999999995 275C462.23999999999995 275 461.99999999999994 275.24 461.99999999999994 275.55L461.99999999999994 286.46000000000004C461.99999999999994 286.76000000000005 462.23999999999995 287.00000000000006 462.54999999999995 287.00000000000006C462.84999999999997 287.00000000000006 463.09 286.76000000000005 463.09 286.46000000000004L463.09 284.49L478.90999999999997 284.49L478.90999999999997 286.46000000000004C478.90999999999997 286.76000000000005 479.15 287.00000000000006 479.45 287.00000000000006C479.76 287.00000000000006 480 286.76000000000005 480 286.46000000000004L480 281.81000000000006C480 281.50000000000006 479.76 281.26000000000005 479.45 281.26000000000005ZM467.72 280.88C468.22 280.88 468.62 280.46999999999997 468.62 279.96999999999997L468.62 279.58C468.62 279.08 468.22 278.68 467.72 278.68L464.42 278.68C463.92 278.68 463.51 279.08 463.51 279.58L463.51 279.96999999999997C463.51 280.46999999999997 463.92 280.88 464.42 280.88Z " fill="#80878b" fill-opacity="1" transform="matrix(1,0,0,1,-462,-275)"></path></svg>