<svg id="SvgjsSvg1031" xmlns="http://www.w3.org/2000/svg" version="1.1" xmlns:xlink="http://www.w3.org/1999/xlink" xmlns:svgjs="http://svgjs.com/svgjs" width="16" height="18"><defs id="SvgjsDefs1032"></defs><path id="SvgjsPath1033" d="M750.49 46.19L746.85 46.19C746.85 47.19 747.6700000000001 48 748.6700000000001 48C749.6700000000001 48 750.4900000000001 47.19 750.4900000000001 46.19ZM754.53 42.59L756.3399999999999 44.400000000000006L756.3399999999999 45.290000000000006L740.9999999999999 45.290000000000006L740.9999999999999 44.400000000000006L742.8199999999999 42.59L742.8199999999999 37.650000000000006C742.8199999999999 34.88 744.7299999999999 32.56 747.3199999999999 31.950000000000006L747.3199999999999 31.340000000000007C747.3199999999999 30.610000000000007 747.9399999999999 30.000000000000007 748.67 30.000000000000007C749.4 30.000000000000007 750.02 30.590000000000007 750.02 31.340000000000007L750.02 31.950000000000006C752.61 32.56000000000001 754.53 34.88000000000001 754.53 37.650000000000006Z " fill="#d4d6d7" fill-opacity="1" transform="matrix(1,0,0,1,-741,-30)"></path></svg>