<?xml version="1.0" encoding="UTF-8" standalone="no"?>
<svg width="14px" height="14px" viewBox="0 0 14 14" version="1.1" xmlns="http://www.w3.org/2000/svg" xmlns:xlink="http://www.w3.org/1999/xlink">
    <!-- Generator: Sketch 3.8.3 (29802) - http://www.bohemiancoding.com/sketch -->
    <title>Combined Shape</title>
    <desc>Created with Sketch.</desc>
    <defs></defs>
    <g id="Symbols" stroke="none" stroke-width="1" fill="none" fill-rule="evenodd">
        <g id="asideAgent" transform="translate(-32.000000, -233.000000)" fill="#FFFFFF">
            <g id="Group-2">
                <g id="dashboard-copy-2" transform="translate(32.000000, 232.000000)">
                    <path d="M12.7273129,2.33327452 L10.8181349,2.33327452 L10.8181349,1 L9.54544785,1 L9.54544785,4.99997794 L10.8181349,4.99997794 L10.8181349,3.66670343 L12.7273129,3.66670343 L12.7273129,13.6667255 L1.27268708,13.6667255 L1.27268708,3.66670343 L2.54537416,3.66670343 L2.54537416,2.33342891 L1.27268708,2.33342891 C0.570174423,2.33342891 -7.10542736e-15,2.93074701 -7.10542736e-15,3.66670343 L-7.10542736e-15,13.6667255 C-7.10542736e-15,14.4026819 0.570174423,15 1.27268708,15 L12.7273129,15 C13.4298256,15 14,14.4026819 14,13.6667255 L14,3.66670343 C14,2.93074701 13.4298256,2.33327452 12.7273129,2.33327452 Z M3.81806124,3.66670343 L8.2726134,3.66670343 L8.2726134,2.33327452 L3.81806124,2.33327452 L3.81806124,1 L2.54537416,1 L2.54537416,4.99997794 L3.81806124,4.99997794 L3.81806124,3.66670343 Z M2.54537416,6.33340685 L5.09089569,6.33340685 L5.09089569,9.00011028 L2.54537416,9.00011028 L2.54537416,6.33340685 Z M5.72723923,6.33340685 L8.27276077,6.33340685 L8.27276077,9.00011028 L5.72723923,9.00011028 L5.72723923,6.33340685 Z M8.90910431,6.33340685 L11.4546258,6.33340685 L11.4546258,9.00011028 L8.90910431,9.00011028 L8.90910431,6.33340685 Z M2.54537416,9.66659315 L5.09089569,9.66659315 L5.09089569,12.3332966 L2.54537416,12.3332966 L2.54537416,9.66659315 Z M5.72723923,9.66659315 L8.27276077,9.66659315 L8.27276077,12.3332966 L5.72723923,12.3332966 L5.72723923,9.66659315 Z" id="Combined-Shape"></path>
                </g>
            </g>
        </g>
    </g>
</svg>