<svg id="SvgjsSvg1000" xmlns="http://www.w3.org/2000/svg" version="1.1" xmlns:xlink="http://www.w3.org/1999/xlink" xmlns:svgjs="http://svgjs.com/svgjs" width="88" height="78"><defs id="SvgjsDefs1001"></defs><path id="SvgjsPath1007" d="M784.32 372.68C784.32 376.36 781.2900000000001 379.35 777.5400000000001 379.35L703.7800000000001 379.35C700.0300000000001 379.35 697.0000000000001 376.36 697.0000000000001 372.68L697.0000000000001 372.68C697.0000000000001 368.99 700.0300000000001 366 703.7800000000001 366L777.5400000000001 366C781.2900000000001 366 784.32 368.99 784.32 372.68Z " fill="#ffffff" fill-opacity="1" transform="matrix(1,0,0,1,-697,-366)"></path><path id="SvgjsPath1008" d="M697 444L697 440L784 440L784 444Z " fill="#ffffff" fill-opacity="1" transform="matrix(1,0,0,1,-697,-366)"></path><path id="SvgjsPath1009" d="M713 405.16C713.82 408.57000000000005 717.91 426.24 716.8 437.53000000000003L726.4799999999999 437.53000000000003C726.4799999999999 437.53000000000003 723.6899999999999 414.59000000000003 716.2299999999999 405.85C716.2299999999999 405.85 738.1199999999999 395.18 740.0999999999999 382L731.56 382C729.3299999999999 391.41 715.68 402.85 713 405.16Z " fill="#ffffff" fill-opacity="1" transform="matrix(1,0,0,1,-697,-366)"></path><path id="SvgjsPath1010" d="M707.1 402.58C712.78 394.78999999999996 714.91 385.76 715.45 382L702 382L702 437.53L706.78 437.53L706.78 403.34999999999997C706.78 403.15999999999997 706.98 402.72999999999996 707.1 402.58Z " fill="#ffffff" fill-opacity="1" transform="matrix(1,0,0,1,-697,-366)"></path><path id="SvgjsPath1011" d="M710.67 405.1C710.5899999999999 404.76000000000005 710.7099999999999 404.17 710.9699999999999 403.94C711.1399999999999 403.81 726.5799999999999 391.41 729.2299999999999 382L716.6499999999999 382C716.1799999999998 385.76 713.7299999999999 395.25 707.9999999999999 403.65L707.9999999999999 437.53L714.5599999999998 437.53C714.5599999999998 437.53 714.5499999999998 437.28 714.5499999999998 437.23999999999995C715.7599999999999 425.92999999999995 710.7199999999998 405.29999999999995 710.6699999999998 405.09999999999997Z " fill="#ffffff" fill-opacity="1" transform="matrix(1,0,0,1,-697,-366)"></path><path id="SvgjsPath1012" d="M764.58 382L752 382C754.65 391.41 770.09 403.81 770.26 403.94C770.52 404.17 770.64 404.64 770.56 404.98C770.51 405.18 765.4699999999999 425.87 766.68 437.18C766.6899999999999 437.22 766.67 437.53000000000003 766.67 437.53000000000003L773.1999999999999 437.53000000000003L773.1999999999999 403.65000000000003C767.4699999999999 395.25000000000006 765.05 385.76000000000005 764.5799999999999 382.00000000000006Z " fill="#ffffff" fill-opacity="1" transform="matrix(1,0,0,1,-697,-366)"></path><path id="SvgjsPath1013" d="M769.1 405.16C766.4200000000001 402.85 752.76 391.41 750.5400000000001 382L742.0000000000001 382C743.9800000000001 395.18 765.8700000000001 405.85 765.8700000000001 405.85C758.4200000000001 414.59000000000003 755.6200000000001 437.53000000000003 755.6200000000001 437.53000000000003L765.3000000000001 437.53000000000003C764.19 426.24 768.2800000000001 408.57000000000005 769.1 405.16Z " fill="#ffffff" fill-opacity="1" transform="matrix(1,0,0,1,-697,-366)"></path><path id="SvgjsPath1014" d="M767 382C767.53 385.76 769.65 394.79 775.33 402.58C775.45 402.72999999999996 775.64 403.15999999999997 775.64 403.34999999999997L775.64 437.53L780.42 437.53L780.42 382Z " fill="#ffffff" fill-opacity="1" transform="matrix(1,0,0,1,-697,-366)"></path><path id="SvgjsPath1015" d="M784.32 372.68C784.32 376.36 781.2900000000001 379.35 777.5400000000001 379.35L703.7800000000001 379.35C700.0300000000001 379.35 697.0000000000001 376.36 697.0000000000001 372.68L697.0000000000001 372.68C697.0000000000001 368.99 700.0300000000001 366 703.7800000000001 366L777.5400000000001 366C781.2900000000001 366 784.32 368.99 784.32 372.68Z " fill="#ffffff" fill-opacity="1" transform="matrix(1,0,0,1,-697,-366)"></path><path id="SvgjsPath1016" d="M697 444L697 440L784 440L784 444Z " fill="#ffffff" fill-opacity="1" transform="matrix(1,0,0,1,-697,-366)"></path><path id="SvgjsPath1017" d="M713 405.16C713.82 408.57000000000005 717.91 426.24 716.8 437.53000000000003L726.4799999999999 437.53000000000003C726.4799999999999 437.53000000000003 723.6899999999999 414.59000000000003 716.2299999999999 405.85C716.2299999999999 405.85 738.1199999999999 395.18 740.0999999999999 382L731.56 382C729.3299999999999 391.41 715.68 402.85 713 405.16Z " fill="#ffffff" fill-opacity="1" transform="matrix(1,0,0,1,-697,-366)"></path><path id="SvgjsPath1018" d="M707.1 402.58C712.78 394.78999999999996 714.91 385.76 715.45 382L702 382L702 437.53L706.78 437.53L706.78 403.34999999999997C706.78 403.15999999999997 706.98 402.72999999999996 707.1 402.58Z " fill="#ffffff" fill-opacity="1" transform="matrix(1,0,0,1,-697,-366)"></path><path id="SvgjsPath1019" d="M710.67 405.1C710.5899999999999 404.76000000000005 710.7099999999999 404.17 710.9699999999999 403.94C711.1399999999999 403.81 726.5799999999999 391.41 729.2299999999999 382L716.6499999999999 382C716.1799999999998 385.76 713.7299999999999 395.25 707.9999999999999 403.65L707.9999999999999 437.53L714.5599999999998 437.53C714.5599999999998 437.53 714.5499999999998 437.28 714.5499999999998 437.23999999999995C715.7599999999999 425.92999999999995 710.7199999999998 405.29999999999995 710.6699999999998 405.09999999999997Z " fill="#ffffff" fill-opacity="1" transform="matrix(1,0,0,1,-697,-366)"></path><path id="SvgjsPath1020" d="M764.58 382L752 382C754.65 391.41 770.09 403.81 770.26 403.94C770.52 404.17 770.64 404.64 770.56 404.98C770.51 405.18 765.4699999999999 425.87 766.68 437.18C766.6899999999999 437.22 766.67 437.53000000000003 766.67 437.53000000000003L773.1999999999999 437.53000000000003L773.1999999999999 403.65000000000003C767.4699999999999 395.25000000000006 765.05 385.76000000000005 764.5799999999999 382.00000000000006Z " fill="#ffffff" fill-opacity="1" transform="matrix(1,0,0,1,-697,-366)"></path><path id="SvgjsPath1021" d="M769.1 405.16C766.4200000000001 402.85 752.76 391.41 750.5400000000001 382L742.0000000000001 382C743.9800000000001 395.18 765.8700000000001 405.85 765.8700000000001 405.85C758.4200000000001 414.59000000000003 755.6200000000001 437.53000000000003 755.6200000000001 437.53000000000003L765.3000000000001 437.53000000000003C764.19 426.24 768.2800000000001 408.57000000000005 769.1 405.16Z " fill="#ffffff" fill-opacity="1" transform="matrix(1,0,0,1,-697,-366)"></path><path id="SvgjsPath1022" d="M767 382C767.53 385.76 769.65 394.79 775.33 402.58C775.45 402.72999999999996 775.64 403.15999999999997 775.64 403.34999999999997L775.64 437.53L780.42 437.53L780.42 382Z " fill="#ffffff" fill-opacity="1" transform="matrix(1,0,0,1,-697,-366)"></path></svg>