<?xml version="1.0" encoding="UTF-8" standalone="no"?>
<svg width="14px" height="14px" viewBox="0 0 14 14" version="1.1" xmlns="http://www.w3.org/2000/svg" xmlns:xlink="http://www.w3.org/1999/xlink">
    <!-- Generator: Sketch 3.8.3 (29802) - http://www.bohemiancoding.com/sketch -->
    <title>dashboard</title>
    <desc>Created with Sketch.</desc>
    <defs></defs>
    <g id="Symbols" stroke="none" stroke-width="1" fill="none" fill-rule="evenodd">
        <g id="asideAgent" transform="translate(-32.000000, -154.000000)" fill="#FFFFFF">
            <g id="Group-2">
                <g id="dashboard" transform="translate(32.000000, 152.000000)">
                    <path d="M5.59986,2 L8.39986,2 C8.65718,2 8.8669,2.20888 8.8669,2.46634 L8.8669,5.26648 C8.8669,5.5238 8.65718,5.73282 8.39986,5.73282 L5.59986,5.73282 C5.34198,5.73282 5.13324,5.52394 5.13324,5.26648 L5.13324,2.46634 C5.13324,2.20888 5.34184,2 5.59986,2 Z M10.73296,2 L13.53352,2 C13.79084,2 13.99944,2.20888 13.99944,2.46634 L13.99944,5.26648 C13.99944,5.5238 13.79084,5.73282 13.53352,5.73282 L10.73296,5.73282 C10.47564,5.73282 10.26592,5.52394 10.26592,5.26648 L10.26592,2.46634 C10.26592,2.20888 10.47564,2 10.73296,2 Z M0.46704,2 L3.26648,2 C3.52436,2 3.73352,2.20888 3.73352,2.46634 L3.73352,5.26648 C3.73352,5.5238 3.52436,5.73282 3.26648,5.73282 L0.46704,5.73282 C0.2086,5.73282 0,5.5238 0,5.26648 L0,2.46634 C0,2.20888 0.2086,2 0.46704,2 Z M5.59986,7.13268 L8.39986,7.13268 C8.65718,7.13268 8.8669,7.34142 8.8669,7.59944 L8.8669,10.39944 C8.8669,10.65704 8.65718,10.86578 8.39986,10.86578 L5.59986,10.86578 C5.34198,10.86578 5.13324,10.65704 5.13324,10.39944 L5.13324,7.59944 C5.13324,7.34142 5.34184,7.13268 5.59986,7.13268 Z M10.73296,7.13268 L13.53352,7.13268 C13.79084,7.13268 13.99944,7.34142 13.99944,7.59944 L13.99944,10.39944 C13.99944,10.65704 13.79084,10.86578 13.53352,10.86578 L10.73296,10.86578 C10.47564,10.86578 10.26592,10.65704 10.26592,10.39944 L10.26592,7.59944 C10.26592,7.34142 10.47564,7.13268 10.73296,7.13268 Z M0.46704,7.13268 L3.26648,7.13268 C3.52436,7.13268 3.73352,7.34142 3.73352,7.59944 L3.73352,10.39944 C3.73352,10.65704 3.52436,10.86578 3.26648,10.86578 L0.46704,10.86578 C0.2086,10.86578 0,10.65704 0,10.39944 L0,7.59944 C0,7.34142 0.2086,7.13268 0.46704,7.13268 Z M5.59986,12.26648 L8.39986,12.26648 C8.65718,12.26648 8.8669,12.47508 8.8669,12.73254 L8.8669,15.53296 C8.8669,15.79084 8.65718,16 8.39986,16 L5.59986,16 C5.34198,16 5.13324,15.79084 5.13324,15.53296 L5.13324,12.73254 C5.13324,12.47508 5.34184,12.26648 5.59986,12.26648 Z M10.73296,12.26648 L13.53352,12.26648 C13.79084,12.26648 13.99944,12.47508 13.99944,12.73254 L13.99944,15.53296 C13.99944,15.79084 13.79084,16 13.53352,16 L10.73296,16 C10.47564,16 10.26592,15.79084 10.26592,15.53296 L10.26592,12.73254 C10.26592,12.47508 10.47564,12.26648 10.73296,12.26648 Z M0.46704,12.26648 L3.26648,12.26648 C3.52436,12.26648 3.73352,12.47508 3.73352,12.73254 L3.73352,15.53296 C3.73352,15.79084 3.52436,16 3.26648,16 L0.46704,16 C0.2086,16 0,15.79084 0,15.53296 L0,12.73254 C0,12.47508 0.2086,12.26648 0.46704,12.26648 Z"></path>
                </g>
            </g>
        </g>
    </g>
</svg>