<svg id="SvgjsSvg1008" xmlns="http://www.w3.org/2000/svg" version="1.1" xmlns:xlink="http://www.w3.org/1999/xlink" xmlns:svgjs="http://svgjs.com/svgjs" width="9" height="15"><defs id="SvgjsDefs1009"></defs><path id="SvgjsPath1010" d="M916.84 162L925 162L925 160.45C925 160.45 919.96 160.38 919.61 160.38C919.42 160.38 919.23 160.32 919.23 159.95C919.23 159.76 919.3000000000001 158.07 919.41 156.19L921.6999999999999 156.19C921.6999999999999 156.19 923.3299999999999 156.10999999999999 923.3299999999999 154.74L919.4999999999999 154.74C919.5699999999999 153.66 919.6399999999999 152.64000000000001 919.7199999999999 151.9C919.9599999999999 149.56 921.8699999999999 149.13 924.17 149.79C924.27 149.79 924.5799999999999 148.4 924.5799999999999 148.4C919.4699999999999 147.02 917.9499999999999 149.46 917.81 151.8L917.6199999999999 154.74C917.4199999999998 154.77 915.9999999999999 154.97 915.9999999999999 156.19L917.5299999999999 156.19L917.2799999999999 160.01C917.1999999999998 161.19 916.8399999999998 162 916.8399999999998 162Z " fill="#5abffa" fill-opacity="1" transform="matrix(1,0,0,1,-916,-147)"></path></svg>