<svg id="SvgjsSvg1000" xmlns="http://www.w3.org/2000/svg" version="1.1" xmlns:xlink="http://www.w3.org/1999/xlink" xmlns:svgjs="http://svgjs.com/svgjs" width="14" height="14"><defs id="SvgjsDefs1001"></defs><path id="SvgjsPath1007" d="M925.47 111.01C925.47 111.05000000000001 925.48 111.09 925.48 111.14C925.48 111.61 925.1 112 924.63 112L913.85 112C913.38 112 913 111.61 913 111.14C913 111.08 913.01 111.02 913.02 110.97C913.02 110.96 913.02 110.96 913.02 110.96C914.34 106.02 915.89 105.38 919.25 105.38C919.94 105.38 920.54 105.39999999999999 921.07 105.47L921.07 106.92C921.32 108.88 922.6600000000001 109.45 923.71 109.59L924.47 109.59C924.49 109.59 924.52 109.59 924.5400000000001 109.58L925.0000000000001 109.58C925.1300000000001 109.95 925.2600000000001 110.34 925.3900000000001 110.76C925.4300000000001 110.84 925.45 110.92 925.4700000000001 111.01ZM919.24 105.06C917.55 105.06 916.17 102.5 916.17 100.77C916.17 99.05 917.55 98 919.24 98C920.9300000000001 98 922.3100000000001 99.05 922.3100000000001 100.77C922.3100000000001 102.5 920.9300000000001 105.06 919.24 105.06ZM924.53 103.92C925.9 103.92 927 105.05 927 106.43C927 107.82000000000001 925.9 108.94000000000001 924.53 108.94000000000001L924.3199999999999 108.94000000000001C922.9499999999999 108.94000000000001 921.8499999999999 107.82000000000001 921.8499999999999 106.43C921.8499999999999 105.05000000000001 922.9499999999999 103.92 924.3199999999999 103.92ZM924.7 106.16L924.7 105.45C924.7 105.3 924.58 105.18 924.4300000000001 105.18C924.2700000000001 105.18 924.1500000000001 105.30000000000001 924.1500000000001 105.45L924.1500000000001 106.16L923.46 106.16C923.3100000000001 106.16 923.19 106.28 923.19 106.42999999999999C923.19 106.58999999999999 923.3100000000001 106.71 923.46 106.71L924.1500000000001 106.71L924.1500000000001 107.41C924.1500000000001 107.57 924.2700000000001 107.69 924.4300000000001 107.69C924.58 107.69 924.7 107.57 924.7 107.41L924.7 106.71L925.3900000000001 106.71C925.5400000000001 106.71 925.6600000000001 106.58999999999999 925.6600000000001 106.42999999999999C925.6600000000001 106.27999999999999 925.5400000000001 106.16 925.3900000000001 106.16Z " fill="#5abffa" fill-opacity="1" transform="matrix(1,0,0,1,-913,-98)"></path></svg>