<?xml version="1.0" encoding="UTF-8" standalone="no"?>
<svg width="96px" height="24px" viewBox="0 0 96 24" version="1.1" xmlns="http://www.w3.org/2000/svg" xmlns:xlink="http://www.w3.org/1999/xlink">
    <!-- Generator: Sketch 3.8.3 (29802) - http://www.bohemiancoding.com/sketch -->
    <title>failedGuarantor</title>
    <desc>Created with Sketch.</desc>
    <defs></defs>
    <g id="agentDashboard" stroke="none" stroke-width="1" fill="none" fill-rule="evenodd">
        <g id="agentApplicantReferences" transform="translate(-806.000000, -278.000000)">
            <g id="table" transform="translate(280.000000, 140.000000)">
                <g id="2" transform="translate(1.000000, 130.000000)">
                    <g id="failedGuarantor" transform="translate(525.000000, 8.000000)">
                        <path d="M12.00012,13.0182218 L7.41799088,17.6002429 L6.39976912,16.5819971 L10.9818742,12 L6.39976912,7.41800288 L7.41799088,6.39975712 L12.00012,10.9817782 L16.5822491,6.39975712 L17.6004709,7.41800288 L13.0183658,12 L17.6004709,16.5819971 L16.5822491,17.6002429 L12.00012,13.0182218 Z M0,12 C0,5.372583 5.36708254,0 12.0006631,0 L83.9993369,0 C90.6271201,0 96,5.37112582 96,12 C96,18.627417 90.6329175,24 83.9993369,24 L12.0006631,24 C5.37287986,24 0,18.6288742 0,12 Z" fill="#FC5967"></path>
                        <path d="M27.05,15.01 C27.3533348,15.01 27.6174989,14.9825003 27.8425,14.9275 C28.0675011,14.8724997 28.2816656,14.7966672 28.485,14.7 L28.485,13.385 L27.58,13.385 C27.4933329,13.385 27.4250002,13.3608336 27.375,13.3125 C27.3249997,13.2641664 27.3,13.2050004 27.3,13.135 L27.3,12.375 L29.705,12.375 L29.705,15.3 C29.5216657,15.433334 29.3308343,15.5491662 29.1325,15.6475 C28.9341657,15.7458338 28.7225011,15.8266664 28.4975,15.89 C28.2724989,15.9533337 28.0316679,16.0008332 27.775,16.0325 C27.518332,16.0641668 27.2416681,16.08 26.945,16.08 C26.4183307,16.08 25.9333355,15.9883343 25.49,15.805 C25.0466644,15.6216658 24.6633349,15.3666683 24.34,15.04 C24.016665,14.7133317 23.7641676,14.3233356 23.5825,13.87 C23.4008324,13.4166644 23.31,12.9216694 23.31,12.385 C23.31,11.841664 23.3983324,11.3433356 23.575,10.89 C23.7516675,10.4366644 24.0024984,10.0466683 24.3275,9.72 C24.6525016,9.3933317 25.0466643,9.1400009 25.51,8.96 C25.9733356,8.7799991 26.4933304,8.69 27.07,8.69 C27.6600029,8.69 28.1708312,8.77749913 28.6025,8.9525 C29.0341688,9.12750088 29.3999985,9.3549986 29.7,9.635 L29.31,10.245 C29.2333329,10.368334 29.1316673,10.43 29.005,10.43 C28.9249996,10.43 28.8433337,10.4033336 28.76,10.35 C28.6533328,10.2866664 28.5441672,10.2233337 28.4325,10.16 C28.3208328,10.0966664 28.1975007,10.0416669 28.0625,9.995 C27.9274993,9.9483331 27.7758342,9.91000015 27.6075,9.88 C27.4391658,9.84999985 27.2450011,9.835 27.025,9.835 C26.6683315,9.835 26.3458348,9.8949994 26.0575,10.015 C25.7691652,10.1350006 25.5233343,10.3066656 25.32,10.53 C25.1166656,10.7533345 24.9600005,11.0216651 24.85,11.335 C24.7399994,11.6483349 24.685,11.9983314 24.685,12.385 C24.685,12.8016688 24.7433327,13.1724984 24.86,13.4975 C24.9766672,13.8225016 25.1399989,14.0966656 25.35,14.32 C25.560001,14.5433345 25.8099985,14.7141661 26.1,14.8325 C26.3900014,14.9508339 26.7066649,15.01 27.05,15.01 L27.05,15.01 Z M33.87,14.915 C34.1300013,14.915 34.362499,14.8716671 34.5675,14.785 C34.772501,14.6983329 34.9458326,14.5766675 35.0875,14.42 C35.2291674,14.2633326 35.3374996,14.0733345 35.4125,13.85 C35.4875004,13.6266656 35.525,13.3766681 35.525,13.1 L35.525,8.77 L36.87,8.77 L36.87,13.1 C36.87,13.5300022 36.800834,13.9274982 36.6625,14.2925 C36.524166,14.6575018 36.3250013,14.9724987 36.065,15.2375 C35.8049987,15.5025013 35.4900018,15.7091659 35.12,15.8575 C34.7499981,16.0058341 34.3333356,16.08 33.87,16.08 C33.4066643,16.08 32.9900018,16.0058341 32.62,15.8575 C32.2499981,15.7091659 31.9358346,15.5025013 31.6775,15.2375 C31.4191654,14.9724987 31.220834,14.6575018 31.0825,14.2925 C30.944166,13.9274982 30.875,13.5300022 30.875,13.1 L30.875,8.77 L32.22,8.77 L32.22,13.095 C32.22,13.3716681 32.2574996,13.6216656 32.3325,13.845 C32.4075004,14.0683345 32.5149993,14.2591659 32.655,14.4175 C32.7950007,14.5758341 32.967499,14.6983329 33.1725,14.785 C33.377501,14.8716671 33.6099987,14.915 33.87,14.915 L33.87,14.915 Z M44.335,16 L43.295,16 C43.1783327,16 43.0825004,15.9708336 43.0075,15.9125 C42.9324996,15.8541664 42.8783335,15.7816671 42.845,15.695 L42.305,14.22 L39.31,14.22 L38.77,15.695 C38.7433332,15.7716671 38.6908337,15.8416664 38.6125,15.905 C38.5341663,15.9683337 38.4383339,16 38.325,16 L37.28,16 L40.12,8.77 L41.495,8.77 L44.335,16 Z M39.655,13.27 L41.96,13.27 L41.08,10.865 C41.0399998,10.7583328 40.9958336,10.6325007 40.9475,10.4875 C40.8991664,10.3424993 40.8516669,10.1850009 40.805,10.015 C40.7583331,10.1850009 40.7125002,10.3433326 40.6675,10.49 C40.6224998,10.6366674 40.5783335,10.7649995 40.535,10.875 L39.655,13.27 Z M46.47,13.175 L46.47,16 L45.125,16 L45.125,8.77 L47.33,8.77 C47.8233358,8.77 48.2458316,8.82083283 48.5975,8.9225 C48.9491684,9.02416718 49.2374989,9.16666575 49.4625,9.35 C49.6875011,9.53333425 49.8524995,9.75249873 49.9575,10.0075 C50.0625005,10.2625013 50.115,10.5433318 50.115,10.85 C50.115,11.0933346 50.079167,11.3233323 50.0075,11.54 C49.935833,11.7566678 49.8325007,11.9533325 49.6975,12.13 C49.5624993,12.3066676 49.3958343,12.461666 49.1975,12.595 C48.9991657,12.728334 48.7733346,12.8349996 48.52,12.915 C48.6900008,13.0116672 48.836666,13.1499991 48.96,13.33 L50.77,16 L49.56,16 C49.4433327,16 49.3441671,15.9766669 49.2625,15.93 C49.1808329,15.8833331 49.1116669,15.8166671 49.055,15.73 L47.535,13.415 C47.478333,13.3283329 47.4158337,13.2666669 47.3475,13.23 C47.2791663,13.1933332 47.178334,13.175 47.045,13.175 L46.47,13.175 Z M46.47,12.21 L47.31,12.21 C47.5633346,12.21 47.7841657,12.1783337 47.9725,12.115 C48.1608343,12.0516664 48.3158327,11.9641672 48.4375,11.8525 C48.5591673,11.7408328 48.6499997,11.6083341 48.71,11.455 C48.7700003,11.3016659 48.8,11.1333343 48.8,10.95 C48.8,10.5833315 48.6791679,10.3016677 48.4375,10.105 C48.1958321,9.90833235 47.8266691,9.81 47.33,9.81 L46.47,9.81 L46.47,12.21 Z M57.985,16 L56.945,16 C56.8283327,16 56.7325004,15.9708336 56.6575,15.9125 C56.5824996,15.8541664 56.5283335,15.7816671 56.495,15.695 L55.955,14.22 L52.96,14.22 L52.42,15.695 C52.3933332,15.7716671 52.3408337,15.8416664 52.2625,15.905 C52.1841663,15.9683337 52.0883339,16 51.975,16 L50.93,16 L53.77,8.77 L55.145,8.77 L57.985,16 Z M53.305,13.27 L55.61,13.27 L54.73,10.865 C54.6899998,10.7583328 54.6458336,10.6325007 54.5975,10.4875 C54.5491664,10.3424993 54.5016669,10.1850009 54.455,10.015 C54.4083331,10.1850009 54.3625002,10.3433326 54.3175,10.49 C54.2724998,10.6366674 54.2283335,10.7649995 54.185,10.875 L53.305,13.27 Z M59.435,8.77 C59.4950003,8.77 59.5449998,8.77249998 59.585,8.7775 C59.6250002,8.78250003 59.6608332,8.79249993 59.6925,8.8075 C59.7241668,8.82250008 59.7549998,8.84416653 59.785,8.8725 C59.8150001,8.90083348 59.8483331,8.9383331 59.885,8.985 L63.68,13.82 C63.6666666,13.7033328 63.6575,13.5891672 63.6525,13.4775 C63.6475,13.3658328 63.645,13.2616672 63.645,13.165 L63.645,8.77 L64.83,8.77 L64.83,16 L64.135,16 C64.0283328,16 63.9400003,15.9833335 63.87,15.95 C63.7999996,15.9166665 63.731667,15.8566671 63.665,15.77 L59.885,10.955 C59.895,11.0616672 59.9025,11.1674995 59.9075,11.2725 C59.9125,11.3775005 59.915,11.4733329 59.915,11.56 L59.915,16 L58.73,16 L58.73,8.77 L59.435,8.77 Z M71.385,8.77 L71.385,9.875 L69.21,9.875 L69.21,16 L67.865,16 L67.865,9.875 L65.68,9.875 L65.68,8.77 L71.385,8.77 Z M78.785,12.385 C78.785,12.9150027 78.6966675,13.4058311 78.52,13.8575 C78.3433324,14.3091689 78.0950016,14.6999984 77.775,15.03 C77.4549984,15.3600017 77.0700022,15.6174991 76.62,15.8025 C76.1699977,15.9875009 75.6716694,16.08 75.125,16.08 C74.5783306,16.08 74.0791689,15.9875009 73.6275,15.8025 C73.1758311,15.6174991 72.7891683,15.3600017 72.4675,15.03 C72.1458317,14.6999984 71.8966675,14.3091689 71.72,13.8575 C71.5433324,13.4058311 71.455,12.9150027 71.455,12.385 C71.455,11.8549974 71.5433324,11.3641689 71.72,10.9125 C71.8966675,10.4608311 72.1458317,10.0700017 72.4675,9.74 C72.7891683,9.40999835 73.1758311,9.15250093 73.6275,8.9675 C74.0791689,8.78249908 74.5783306,8.69 75.125,8.69 C75.6716694,8.69 76.1699977,8.7833324 76.62,8.97 C77.0700022,9.1566676 77.4549984,9.41416503 77.775,9.7425 C78.0950016,10.070835 78.3433324,10.4608311 78.52,10.9125 C78.6966675,11.3641689 78.785,11.8549974 78.785,12.385 L78.785,12.385 Z M77.405,12.385 C77.405,11.9883314 77.3525005,11.6325016 77.2475,11.3175 C77.1424995,11.0024984 76.9916676,10.7350011 76.795,10.515 C76.5983323,10.2949989 76.3591681,10.1266673 76.0775,10.01 C75.7958319,9.89333275 75.4783351,9.835 75.125,9.835 C74.7716649,9.835 74.4533347,9.89333275 74.17,10.01 C73.8866652,10.1266673 73.6458343,10.2949989 73.4475,10.515 C73.2491657,10.7350011 73.0966672,11.0024984 72.99,11.3175 C72.8833328,11.6325016 72.83,11.9883314 72.83,12.385 C72.83,12.7816687 72.8833328,13.1374984 72.99,13.4525 C73.0966672,13.7675016 73.2491657,14.0341656 73.4475,14.2525 C73.6458343,14.4708344 73.8866652,14.6383328 74.17,14.755 C74.4533347,14.8716673 74.7716649,14.93 75.125,14.93 C75.4783351,14.93 75.7958319,14.8716673 76.0775,14.755 C76.3591681,14.6383328 76.5983323,14.4708344 76.795,14.2525 C76.9916676,14.0341656 77.1424995,13.7675016 77.2475,13.4525 C77.3525005,13.1374984 77.405,12.7816687 77.405,12.385 L77.405,12.385 Z M81.235,13.175 L81.235,16 L79.89,16 L79.89,8.77 L82.095,8.77 C82.5883358,8.77 83.0108316,8.82083283 83.3625,8.9225 C83.7141684,9.02416718 84.0024989,9.16666575 84.2275,9.35 C84.4525011,9.53333425 84.6174995,9.75249873 84.7225,10.0075 C84.8275005,10.2625013 84.88,10.5433318 84.88,10.85 C84.88,11.0933346 84.844167,11.3233323 84.7725,11.54 C84.700833,11.7566678 84.5975007,11.9533325 84.4625,12.13 C84.3274993,12.3066676 84.1608343,12.461666 83.9625,12.595 C83.7641657,12.728334 83.5383346,12.8349996 83.285,12.915 C83.4550008,13.0116672 83.601666,13.1499991 83.725,13.33 L85.535,16 L84.325,16 C84.2083327,16 84.1091671,15.9766669 84.0275,15.93 C83.9458329,15.8833331 83.8766669,15.8166671 83.82,15.73 L82.3,13.415 C82.243333,13.3283329 82.1808337,13.2666669 82.1125,13.23 C82.0441663,13.1933332 81.943334,13.175 81.81,13.175 L81.235,13.175 Z M81.235,12.21 L82.075,12.21 C82.3283346,12.21 82.5491657,12.1783337 82.7375,12.115 C82.9258343,12.0516664 83.0808327,11.9641672 83.2025,11.8525 C83.3241673,11.7408328 83.4149997,11.6083341 83.475,11.455 C83.5350003,11.3016659 83.565,11.1333343 83.565,10.95 C83.565,10.5833315 83.4441679,10.3016677 83.2025,10.105 C82.9608321,9.90833235 82.5916691,9.81 82.095,9.81 L81.235,9.81 L81.235,12.21 Z" id="GUARANTOR" fill="#FFFFFF"></path>
                    </g>
                </g>
            </g>
        </g>
    </g>
</svg>