<?xml version="1.0" encoding="UTF-8" standalone="no"?>
<svg width="18px" height="18px" viewBox="0 0 18 18" version="1.1" xmlns="http://www.w3.org/2000/svg" xmlns:xlink="http://www.w3.org/1999/xlink">
    <!-- Generator: Sketch 3.8.3 (29802) - http://www.bohemiancoding.com/sketch -->
    <title>more</title>
    <desc>Created with Sketch.</desc>
    <defs></defs>
    <g id="agentDashboard" stroke="none" stroke-width="1" fill="none" fill-rule="evenodd" opacity="0.9">
        <g id="agentApplicantReportExpanded" transform="translate(-290.000000, -278.000000)" fill="#5ABFFA">
            <g id="table" transform="translate(280.000000, 140.000000)">
                <g id="2" transform="translate(0.000000, 117.000000)">
                    <path d="M19,39 C14.0374878,39 10,34.9625122 10,30 C10,25.0374878 14.0374878,21 19,21 C23.9625122,21 28,25.0374878 28,30 C28,34.9625122 23.9625122,39 19,39 L19,39 Z M19,22.5365854 C14.8845854,22.5365854 11.5365854,25.8845854 11.5365854,30 C11.5365854,34.1154146 14.8845854,37.4634146 19,37.4634146 C23.1154146,37.4634146 26.4634146,34.1154146 26.4634146,30 C26.4634146,25.8845854 23.1154146,22.5365854 19,22.5365854 L19,22.5365854 Z M19.7682927,29.2317073 L18.2317073,29.2317073 L16.4756098,29.2317073 C16.0512927,29.2317073 15.7073171,29.5756829 15.7073171,30 C15.7073171,30.4243171 16.0512927,30.7682927 16.4756098,30.7682927 L18.2317073,30.7682927 L19.7682927,30.7682927 L21.5243902,30.7682927 C21.9487073,30.7682927 22.2926829,30.4243171 22.2926829,30 C22.2926829,29.5756829 21.9487073,29.2317073 21.5243902,29.2317073 L19.7682927,29.2317073 Z" id="more"></path>
                </g>
            </g>
        </g>
    </g>
</svg>