<svg id="SvgjsSvg1017" xmlns="http://www.w3.org/2000/svg" version="1.1" xmlns:xlink="http://www.w3.org/1999/xlink" xmlns:svgjs="http://svgjs.com/svgjs" width="20" height="14"><defs id="SvgjsDefs1018"></defs><path id="SvgjsPath1019" d="M1082.69 154.32C1085.89 153.57 1085.13 148.12 1082.21 147.06C1081.97 147 1081.55 146.94 1081.13 147.13C1080.71 146.94 1080.2900000000002 147 1080.0400000000002 147.06C1077.1200000000001 148.12 1076.3600000000001 153.58 1079.5700000000002 154.32C1080.1000000000001 154.79 1080.2900000000002 156.91 1080.15 157.76C1080.51 158.2 1080.46 157.97 1081.13 159.75C1081.7900000000002 157.97 1081.75 158.2 1082.1100000000001 157.76C1081.96 156.89999999999998 1082.15 154.79 1082.68 154.32C1082.69 154.32 1082.69 154.32 1082.69 154.32ZM1081.13 160.99C1081.8700000000001 161.04000000000002 1086.71 160.81 1087.0900000000001 159.52C1087.9700000000003 156.12 1085.1000000000001 156.14000000000001 1083.5600000000002 155.32000000000002C1084.3000000000002 156.49 1084.9800000000002 158.19000000000003 1084.9800000000002 158.19000000000003C1084.9800000000002 158.19000000000003 1083.2300000000002 158.15000000000003 1082.9500000000003 157.39000000000001C1082.1800000000003 158.87 1081.2600000000002 159.66000000000003 1081.1300000000003 159.76000000000002C1081.1300000000003 159.77 1081.1400000000003 159.77 1081.1400000000003 159.78000000000003L1081.1300000000003 159.77000000000004C1081.1200000000003 159.77000000000004 1081.1200000000003 159.78000000000003 1081.1200000000003 159.78000000000003C1081.1200000000003 159.77000000000004 1081.1200000000003 159.77000000000004 1081.1200000000003 159.76000000000002C1080.9900000000002 159.66000000000003 1080.0700000000004 158.87000000000003 1079.3000000000004 157.39000000000001C1079.0300000000004 158.15 1077.2700000000004 158.19000000000003 1077.2700000000004 158.19000000000003C1077.2700000000004 158.19000000000003 1077.9400000000005 156.52000000000004 1078.6700000000005 155.36C1077.1300000000006 156.16000000000003 1074.2900000000004 156.14000000000001 1075.1600000000005 159.52C1075.5400000000006 160.81 1080.3800000000006 161.04000000000002 1081.1300000000006 160.99ZM1087.83 159.77C1087.9099999999999 159.77 1087.97 159.77 1088.03 159.77C1088.1 159.77 1088.3 159.77 1088.37 159.77C1089.2399999999998 159.77 1092.58 159.56 1092.87 158.54000000000002C1093.4199999999998 156.36 1092.12 155.83 1090.9799999999998 155.37000000000003C1090.7999999999997 155.30000000000004 1090.4799999999998 155.18000000000004 1090.4799999999998 155.18000000000004C1090.3399999999997 155.13000000000002 1089.7599999999998 154.76000000000005 1089.7599999999998 154.76000000000005C1089.7099999999998 154.71000000000004 1089.7799999999997 155.98000000000005 1088.1999999999998 155.98000000000005C1086.62 155.98000000000005 1086.6699999999998 154.71000000000004 1086.62 154.76000000000005C1086.62 154.76000000000005 1086.03 155.13000000000005 1085.8999999999999 155.19000000000005C1085.8999999999999 155.19000000000005 1085.7599999999998 155.24000000000007 1085.62 155.29000000000005C1086.9799999999998 155.84000000000006 1088.59 156.85000000000005 1087.85 159.71000000000004L1087.84 159.73000000000005C1087.84 159.75000000000006 1087.84 159.76000000000005 1087.83 159.77000000000004ZM1086.01 151.93C1086.06 152.07 1086.17 152.18 1086.31 152.25C1086.33 152.37 1086.36 152.54 1086.4099999999999 152.7C1086.54 153.16 1087.1999999999998 154.20999999999998 1088.06 154.23999999999998C1088.09 154.23999999999998 1088.1399999999999 154.23999999999998 1088.19 154.23999999999998L1088.3 154.23999999999998C1089.1699999999998 154.23 1089.86 153.15999999999997 1089.99 152.7C1090.03 152.54 1090.07 152.36999999999998 1090.09 152.25C1090.22 152.18 1090.33 152.07 1090.3899999999999 151.93C1090.4699999999998 151.72 1090.52 151.28 1090.52 151.26000000000002C1090.55 150.91000000000003 1090.43 150.71 1090.42 150.70000000000002C1090.5600000000002 149.28000000000003 1090.1000000000001 149.00000000000003 1089.8000000000002 148.95000000000002C1089.6900000000003 148.94000000000003 1089.5300000000002 148.9 1089.4500000000003 148.82000000000002C1089.2800000000002 148.63000000000002 1089.2100000000003 148.42000000000002 1088.9100000000003 148.44000000000003C1088.8000000000004 148.45000000000002 1088.6500000000003 148.41000000000003 1088.5700000000004 148.34000000000003C1088.4600000000005 148.25000000000003 1088.3000000000004 148.14000000000004 1088.1800000000003 148.14000000000004C1088.0700000000004 148.14000000000004 1087.9300000000003 148.24000000000004 1087.8200000000004 148.34000000000003C1087.7400000000005 148.41000000000003 1087.6000000000004 148.45000000000005 1087.4900000000005 148.44000000000003C1087.1900000000005 148.42000000000002 1087.1200000000006 148.63000000000002 1086.9400000000005 148.82000000000002C1086.8700000000006 148.90000000000003 1086.7100000000005 148.94000000000003 1086.6000000000006 148.95000000000002C1086.2900000000006 149.00000000000003 1085.8300000000006 149.28000000000003 1085.9800000000007 150.70000000000002C1085.9700000000007 150.71 1085.8400000000006 150.92000000000002 1085.8800000000008 151.26000000000002C1085.8800000000008 151.28000000000003 1085.9200000000008 151.72000000000003 1086.010000000001 151.93Z " fill="#e62b92" fill-opacity="1" transform="matrix(1,0,0,1,-1074,-147)"></path></svg>
