<?xml version="1.0" encoding="UTF-8" standalone="no"?>
<svg width="18px" height="18px" viewBox="0 0 18 18" version="1.1" xmlns="http://www.w3.org/2000/svg" xmlns:xlink="http://www.w3.org/1999/xlink">
    <!-- Generator: Sketch 3.8.3 (29802) - http://www.bohemiancoding.com/sketch -->
    <title>more</title>
    <desc>Created with Sketch.</desc>
    <defs></defs>
    <g id="agentDashboard" stroke="none" stroke-width="1" fill="none" fill-rule="evenodd">
        <g id="agentApplicantReportExpanded" transform="translate(-290.000000, -218.000000)" fill="#5ABFFA">
            <g id="table" transform="translate(280.000000, 140.000000)">
                <g id="1" transform="translate(1.000000, 57.000000)">
                    <path d="M18,39 C13.0374878,39 9,34.9625122 9,30 C9,25.0374878 13.0374878,21 18,21 C22.9625122,21 27,25.0374878 27,30 C27,34.9625122 22.9625122,39 18,39 L18,39 Z M18,22.5365854 C13.8845854,22.5365854 10.5365854,25.8845854 10.5365854,30 C10.5365854,34.1154146 13.8845854,37.4634146 18,37.4634146 C22.1154146,37.4634146 25.4634146,34.1154146 25.4634146,30 C25.4634146,25.8845854 22.1154146,22.5365854 18,22.5365854 L18,22.5365854 Z M20.5243902,29.2317073 L18.7682927,29.2317073 L18.7682927,27.4756098 C18.7682927,27.0512927 18.4243171,26.7073171 18,26.7073171 C17.5756829,26.7073171 17.2317073,27.0512927 17.2317073,27.4756098 L17.2317073,29.2317073 L15.4756098,29.2317073 C15.0512927,29.2317073 14.7073171,29.5756829 14.7073171,30 C14.7073171,30.4243171 15.0512927,30.7682927 15.4756098,30.7682927 L17.2317073,30.7682927 L17.2317073,32.5243902 C17.2317073,32.9487073 17.5756829,33.2926829 18,33.2926829 C18.4243171,33.2926829 18.7682927,32.9487073 18.7682927,32.5243902 L18.7682927,30.7682927 L20.5243902,30.7682927 C20.9487073,30.7682927 21.2926829,30.4243171 21.2926829,30 C21.2926829,29.5756829 20.9487073,29.2317073 20.5243902,29.2317073 L20.5243902,29.2317073 Z" id="more"></path>
                </g>
            </g>
        </g>
    </g>
</svg>