<svg id="SvgjsSvg1000" xmlns="http://www.w3.org/2000/svg" version="1.1" xmlns:xlink="http://www.w3.org/1999/xlink" xmlns:svgjs="http://svgjs.com/svgjs" width="25.25" height="25.25"><defs id="SvgjsDefs1001"></defs><path id="SvgjsPath1007" d="M734 702.5C734 695.59 739.59 690 746.5 690C753.41 690 759 695.59 759 702.5C759 709.41 753.41 715 746.5 715C739.59 715 734 709.41 734 702.5ZM735.06 702.5C735.06 708.83 740.17 713.94 746.5 713.94C752.83 713.94 757.94 708.83 757.94 702.5C757.94 696.17 752.83 691.06 746.5 691.06C740.17 691.06 735.06 696.17 735.06 702.5ZM745.54 698.99L745.54 696.22L747.4599999999999 696.22L747.4599999999999 698.99L747.03 705.64L746.02 705.64ZM745.6 708.78L747.35 708.78L747.35 707.02L745.6 707.02Z " fill="#fc5967" fill-opacity="1" transform="matrix(1,0,0,1,-733.875,-689.875)"></path><path id="SvgjsPath1008" d="M734 702.5C734 695.59 739.59 690 746.5 690C753.41 690 759 695.59 759 702.5C759 709.41 753.41 715 746.5 715C739.59 715 734 709.41 734 702.5ZM735.06 702.5C735.06 708.83 740.17 713.94 746.5 713.94C752.83 713.94 757.94 708.83 757.94 702.5C757.94 696.17 752.83 691.06 746.5 691.06C740.17 691.06 735.06 696.17 735.06 702.5ZM745.54 698.99L745.54 696.22L747.4599999999999 696.22L747.4599999999999 698.99L747.03 705.64L746.02 705.64ZM745.6 708.78L747.35 708.78L747.35 707.02L745.6 707.02Z " fill-opacity="0" fill="#ffffff" stroke-dasharray="0" stroke-linejoin="miter" stroke-linecap="butt" stroke-opacity="1" stroke="#fc5967" stroke-miterlimit="50" stroke-width="0.25" transform="matrix(1,0,0,1,-733.875,-689.875)"></path></svg>