<svg id="SvgjsSvg1000" xmlns="http://www.w3.org/2000/svg" version="1.1" xmlns:xlink="http://www.w3.org/1999/xlink" xmlns:svgjs="http://svgjs.com/svgjs" width="24" height="24"><defs id="SvgjsDefs1001"><clipPath id="SvgjsClipPath1010"><path id="SvgjsPath1009" d="M703 220C703 226.63 708.37 232 715 232C721.63 232 727 226.63 727 220C727 213.37 721.63 208 715 208C708.37 208 703 213.37 703 220ZM715.18 227.3C711.29 227.3 708.0699999999999 224.34 707.8399999999999 220.56L707.8399999999999 220.49L706.9499999999999 221.36L706.4999999999999 220.93L708.1399999999999 219.33L709.8899999999999 220.93L709.3299999999999 221.35L708.4699999999999 220.51999999999998L708.4799999999999 220.60999999999999C708.7199999999999 224.01999999999998 711.67 226.69 715.1999999999999 226.69C715.3 226.69 715.4 226.69 715.4999999999999 226.68C718.9299999999998 226.53 721.7399999999999 223.8 721.8999999999999 220.47C721.9899999999999 218.66 721.3299999999998 216.95 720.0499999999998 215.64C718.7599999999999 214.33999999999997 717.0299999999999 213.61999999999998 715.1799999999998 213.61999999999998C715.1099999999998 213.61999999999998 715.0099999999999 213.61999999999998 714.9199999999998 213.61999999999998L714.8599999999999 213.61999999999998L714.8599999999999 213.00999999999996L714.9199999999998 213.00999999999996C715.0099999999999 212.99999999999997 715.0999999999998 212.99999999999997 715.1899999999998 212.99999999999997C717.1899999999998 212.99999999999997 719.0599999999998 213.77999999999997 720.4699999999998 215.19999999999996C721.8699999999998 216.60999999999996 722.5999999999998 218.45999999999995 722.5299999999997 220.40999999999997C722.3999999999997 224.09999999999997 719.3199999999997 227.11999999999998 715.5299999999997 227.29999999999995C715.4099999999997 227.29999999999995 715.2999999999997 227.29999999999995 715.1799999999997 227.29999999999995Z " fill="#ffffff"></path></clipPath></defs><path id="SvgjsPath1007" d="M703 220C703 226.63 708.37 232 715 232C721.63 232 727 226.63 727 220C727 213.37 721.63 208 715 208C708.37 208 703 213.37 703 220ZM715.18 227.3C711.29 227.3 708.0699999999999 224.34 707.8399999999999 220.56L707.8399999999999 220.49L706.9499999999999 221.36L706.4999999999999 220.93L708.1399999999999 219.33L709.8899999999999 220.93L709.3299999999999 221.35L708.4699999999999 220.51999999999998L708.4799999999999 220.60999999999999C708.7199999999999 224.01999999999998 711.67 226.69 715.1999999999999 226.69C715.3 226.69 715.4 226.69 715.4999999999999 226.68C718.9299999999998 226.53 721.7399999999999 223.8 721.8999999999999 220.47C721.9899999999999 218.66 721.3299999999998 216.95 720.0499999999998 215.64C718.7599999999999 214.33999999999997 717.0299999999999 213.61999999999998 715.1799999999998 213.61999999999998C715.1099999999998 213.61999999999998 715.0099999999999 213.61999999999998 714.9199999999998 213.61999999999998L714.8599999999999 213.61999999999998L714.8599999999999 213.00999999999996L714.9199999999998 213.00999999999996C715.0099999999999 212.99999999999997 715.0999999999998 212.99999999999997 715.1899999999998 212.99999999999997C717.1899999999998 212.99999999999997 719.0599999999998 213.77999999999997 720.4699999999998 215.19999999999996C721.8699999999998 216.60999999999996 722.5999999999998 218.45999999999995 722.5299999999997 220.40999999999997C722.3999999999997 224.09999999999997 719.3199999999997 227.11999999999998 715.5299999999997 227.29999999999995C715.4099999999997 227.29999999999995 715.2999999999997 227.29999999999995 715.1799999999997 227.29999999999995Z " fill="#e62b92" fill-opacity="1" transform="matrix(1,0,0,1,-703,-208)"></path><path id="SvgjsPath1008" d="M703 220C703 226.63 708.37 232 715 232C721.63 232 727 226.63 727 220C727 213.37 721.63 208 715 208C708.37 208 703 213.37 703 220ZM715.18 227.3C711.29 227.3 708.0699999999999 224.34 707.8399999999999 220.56L707.8399999999999 220.49L706.9499999999999 221.36L706.4999999999999 220.93L708.1399999999999 219.33L709.8899999999999 220.93L709.3299999999999 221.35L708.4699999999999 220.51999999999998L708.4799999999999 220.60999999999999C708.7199999999999 224.01999999999998 711.67 226.69 715.1999999999999 226.69C715.3 226.69 715.4 226.69 715.4999999999999 226.68C718.9299999999998 226.53 721.7399999999999 223.8 721.8999999999999 220.47C721.9899999999999 218.66 721.3299999999998 216.95 720.0499999999998 215.64C718.7599999999999 214.33999999999997 717.0299999999999 213.61999999999998 715.1799999999998 213.61999999999998C715.1099999999998 213.61999999999998 715.0099999999999 213.61999999999998 714.9199999999998 213.61999999999998L714.8599999999999 213.61999999999998L714.8599999999999 213.00999999999996L714.9199999999998 213.00999999999996C715.0099999999999 212.99999999999997 715.0999999999998 212.99999999999997 715.1899999999998 212.99999999999997C717.1899999999998 212.99999999999997 719.0599999999998 213.77999999999997 720.4699999999998 215.19999999999996C721.8699999999998 216.60999999999996 722.5999999999998 218.45999999999995 722.5299999999997 220.40999999999997C722.3999999999997 224.09999999999997 719.3199999999997 227.11999999999998 715.5299999999997 227.29999999999995C715.4099999999997 227.29999999999995 715.2999999999997 227.29999999999995 715.1799999999997 227.29999999999995Z " fill-opacity="0" fill="#ffffff" stroke-dasharray="0" stroke-linejoin="miter" stroke-linecap="butt" stroke-opacity="1" stroke="#ffffff" stroke-miterlimit="50" stroke-width="0.6" clip-path="url(&quot;#SvgjsClipPath1010&quot;)" transform="matrix(1,0,0,1,-703,-208)"></path></svg>
