<svg id="SvgjsSvg1011" xmlns="http://www.w3.org/2000/svg" version="1.1" xmlns:xlink="http://www.w3.org/1999/xlink" xmlns:svgjs="http://svgjs.com/svgjs" width="20" height="20"><defs id="SvgjsDefs1012"></defs><path id="SvgjsPath1013" d="M1080 240C1085.51 240 1090 235.51 1090 230C1090 224.49 1085.51 220 1080 220C1074.49 220 1070 224.49 1070 230C1070 235.51 1074.49 240 1080 240ZM1080.01 221C1084.97 221 1089.01 225.04 1089.01 230.01C1089.01 234.97 1084.97 239.01 1080.01 239.01C1075.04 239.01 1071 234.97 1071 230.01C1071 225.04 1075.04 221 1080.01 221ZM1083.39 233.22C1082.3200000000002 229.84 1080.01 230.05 1080.01 230.05C1077.2 230.09 1076.62 233.22 1076.62 233.22C1076.62 233.22 1075.9199999999998 236.12 1078.35 234.75C1078.35 234.75 1079.78 233.65 1081.6699999999998 234.75C1084.08 236.15 1083.3899999999999 233.22 1083.3899999999999 233.22ZM1084.08 232.38C1084.8799999999999 232.56 1085.73 231.78 1085.98 230.64C1086.23 229.5 1085.79 228.42999999999998 1084.99 228.25C1084.2 228.08 1083.35 228.86 1083.1 230C1082.84 231.14 1083.28 232.21 1084.08 232.38ZM1081.62 229.21C1082.4299999999998 229.3 1083.1899999999998 228.44 1083.32 227.27C1083.45 226.11 1082.8999999999999 225.10000000000002 1082.09 225.01000000000002C1081.28 224.91000000000003 1080.52 225.78000000000003 1080.3899999999999 226.94000000000003C1080.2599999999998 228.10000000000002 1080.81 229.12000000000003 1081.62 229.21000000000004ZM1075.932 231.95279C1076.74087 231.77384999999998 1077.20318 230.7545 1076.96459 229.676C1076.726 228.59751 1075.87687 227.86827 1075.068 228.04720999999998C1074.25913 228.22615 1073.79682 229.2455 1074.03541 230.32399999999998C1074.274 231.40248999999997 1075.12313 232.13172999999998 1075.932 231.95279ZM1078.49 229.21C1077.68 229.3 1076.92 228.44 1076.79 227.27C1076.6499999999999 226.11 1077.2 225.10000000000002 1078.01 225.01000000000002C1078.82 224.91000000000003 1079.59 225.78000000000003 1079.72 226.94000000000003C1079.8500000000001 228.10000000000002 1079.3 229.12000000000003 1078.49 229.21000000000004Z " fill="#d4d6d7" fill-opacity="1" transform="matrix(1,0,0,1,-1070,-220)"></path></svg>