<?xml version="1.0" encoding="UTF-8" standalone="no"?>
<svg width="16px" height="16px" viewBox="0 0 16 16" version="1.1" xmlns="http://www.w3.org/2000/svg" xmlns:xlink="http://www.w3.org/1999/xlink">
    <!-- Generator: Sketch 3.8.3 (29802) - http://www.bohemiancoding.com/sketch -->
    <title>Combined Shape</title>
    <desc>Created with Sketch.</desc>
    <defs></defs>
    <g id="Symbols" stroke="none" stroke-width="1" fill="none" fill-rule="evenodd">
        <g id="asideAgent" transform="translate(-32.000000, -193.000000)" fill="#FFFFFF" stroke="#FFFFFF">
            <g id="Group-2">
                <g id="dashboard-copy" transform="translate(32.000000, 192.000000)">
                    <path d="M9.31138047,8.84121967 L7.8873465,8.84121967 L7.8873465,7.41761953 L7.57043658,7.41761953 L7.57043658,8.84121967 L6.14661953,8.84121967 L6.14661953,9.1583465 L7.57043658,9.1583465 L7.57043658,10.5823805 L7.8873465,10.5823805 L7.8873465,9.1583465 L9.31138047,9.1583465 L9.31138047,8.84121967 Z M1.37973905,6.28858728 L1.37973905,2.65073905 L5.01758728,2.65073905 L5.01758728,2 L0.729,2 L0.729,6.28858728 L1.37973905,6.28858728 Z M14.0782609,6.28858728 L14.729,6.28858728 L14.729,2 L10.4404127,2 L10.4404127,2.65073905 L14.0782609,2.65073905 L14.0782609,6.28858728 Z M14.0782609,11.7114127 L14.0782609,15.3492609 L10.4404127,15.3492609 L10.4404127,16 L14.729,16 L14.729,11.7114127 L14.0782609,11.7114127 Z M1.37973905,11.7114127 L0.729,11.7114127 L0.729,16 L5.01758728,16 L5.01758728,15.3492609 L1.37973905,15.3492609 L1.37973905,11.7114127 Z" id="Combined-Shape"></path>
                </g>
            </g>
        </g>
    </g>
</svg>