<svg id="SvgjsSvg1017" xmlns="http://www.w3.org/2000/svg" version="1.1" xmlns:xlink="http://www.w3.org/1999/xlink" xmlns:svgjs="http://svgjs.com/svgjs" width="24" height="24"><defs id="SvgjsDefs1018"><clipPath id="SvgjsClipPath1022"><path id="SvgjsPath1021" d="M1113 220C1113 226.63 1118.37 232 1125 232C1131.63 232 1137 226.63 1137 220C1137 213.37 1131.63 208 1125 208C1118.37 208 1113 213.37 1113 220ZM1123.3 214C1123.47 213.98 1123.62 214.09 1123.6499999999999 214.27C1123.6699999999998 214.44 1123.56 214.60000000000002 1123.3999999999999 214.63000000000002C1120.6299999999999 215.09000000000003 1118.61 217.55 1118.61 220.49000000000004C1118.6 222.82000000000005 1119.87 224.95000000000005 1121.79 225.90000000000003L1121.79 222.72000000000003C1121.79 222.55000000000004 1121.92 222.41000000000003 1122.09 222.41000000000003C1122.26 222.41000000000003 1122.3899999999999 222.55 1122.3899999999999 222.72000000000003L1122.3899999999999 226.68000000000004C1122.3899999999999 226.86000000000004 1122.2599999999998 227.00000000000003 1122.09 227.00000000000003L1118.6 227.00000000000003C1118.4299999999998 227.00000000000003 1118.3 226.86000000000004 1118.3 226.68000000000004C1118.3 226.51000000000005 1118.43 226.37000000000003 1118.6 226.37000000000003L1121.32 226.37000000000003C1119.31 225.27000000000004 1118 222.98000000000005 1118 220.49000000000004C1118 217.24000000000004 1120.23 214.51000000000005 1123.3 214.00000000000003ZM1128.49 214.63C1130.6200000000001 215.74 1132 218.01999999999998 1132 220.51C1132 223.76 1129.63 226.48999999999998 1126.37 227C1126.35 227 1126.34 227 1126.32 227C1126.1699999999998 227 1126.03 226.89 1126 226.73C1125.98 226.56 1126.1 226.39999999999998 1126.27 226.36999999999998C1129.21 225.90999999999997 1131.35 223.45 1131.36 220.50999999999996C1131.36 218.10999999999996 1129.9399999999998 215.92999999999995 1127.82 215.01999999999995L1127.82 217.95999999999995C1127.82 218.13999999999996 1127.6699999999998 218.27999999999994 1127.49 218.27999999999994C1127.32 218.27999999999994 1127.17 218.13999999999996 1127.17 217.95999999999995L1127.17 214.31999999999996C1127.17 214.13999999999996 1127.3200000000002 213.99999999999997 1127.49 213.99999999999997L1131.52 213.99999999999997C1131.69 213.99999999999997 1131.84 214.13999999999996 1131.84 214.31999999999996C1131.84 214.48999999999995 1131.6899999999998 214.62999999999997 1131.52 214.62999999999997Z " fill="#ffffff"></path></clipPath></defs><path id="SvgjsPath1019" d="M1113 220C1113 226.63 1118.37 232 1125 232C1131.63 232 1137 226.63 1137 220C1137 213.37 1131.63 208 1125 208C1118.37 208 1113 213.37 1113 220ZM1123.3 214C1123.47 213.98 1123.62 214.09 1123.6499999999999 214.27C1123.6699999999998 214.44 1123.56 214.60000000000002 1123.3999999999999 214.63000000000002C1120.6299999999999 215.09000000000003 1118.61 217.55 1118.61 220.49000000000004C1118.6 222.82000000000005 1119.87 224.95000000000005 1121.79 225.90000000000003L1121.79 222.72000000000003C1121.79 222.55000000000004 1121.92 222.41000000000003 1122.09 222.41000000000003C1122.26 222.41000000000003 1122.3899999999999 222.55 1122.3899999999999 222.72000000000003L1122.3899999999999 226.68000000000004C1122.3899999999999 226.86000000000004 1122.2599999999998 227.00000000000003 1122.09 227.00000000000003L1118.6 227.00000000000003C1118.4299999999998 227.00000000000003 1118.3 226.86000000000004 1118.3 226.68000000000004C1118.3 226.51000000000005 1118.43 226.37000000000003 1118.6 226.37000000000003L1121.32 226.37000000000003C1119.31 225.27000000000004 1118 222.98000000000005 1118 220.49000000000004C1118 217.24000000000004 1120.23 214.51000000000005 1123.3 214.00000000000003ZM1128.49 214.63C1130.6200000000001 215.74 1132 218.01999999999998 1132 220.51C1132 223.76 1129.63 226.48999999999998 1126.37 227C1126.35 227 1126.34 227 1126.32 227C1126.1699999999998 227 1126.03 226.89 1126 226.73C1125.98 226.56 1126.1 226.39999999999998 1126.27 226.36999999999998C1129.21 225.90999999999997 1131.35 223.45 1131.36 220.50999999999996C1131.36 218.10999999999996 1129.9399999999998 215.92999999999995 1127.82 215.01999999999995L1127.82 217.95999999999995C1127.82 218.13999999999996 1127.6699999999998 218.27999999999994 1127.49 218.27999999999994C1127.32 218.27999999999994 1127.17 218.13999999999996 1127.17 217.95999999999995L1127.17 214.31999999999996C1127.17 214.13999999999996 1127.3200000000002 213.99999999999997 1127.49 213.99999999999997L1131.52 213.99999999999997C1131.69 213.99999999999997 1131.84 214.13999999999996 1131.84 214.31999999999996C1131.84 214.48999999999995 1131.6899999999998 214.62999999999997 1131.52 214.62999999999997Z " fill="#5abffa" fill-opacity="1" transform="matrix(1,0,0,1,-1113,-208)"></path><path id="SvgjsPath1020" d="M1113 220C1113 226.63 1118.37 232 1125 232C1131.63 232 1137 226.63 1137 220C1137 213.37 1131.63 208 1125 208C1118.37 208 1113 213.37 1113 220ZM1123.3 214C1123.47 213.98 1123.62 214.09 1123.6499999999999 214.27C1123.6699999999998 214.44 1123.56 214.60000000000002 1123.3999999999999 214.63000000000002C1120.6299999999999 215.09000000000003 1118.61 217.55 1118.61 220.49000000000004C1118.6 222.82000000000005 1119.87 224.95000000000005 1121.79 225.90000000000003L1121.79 222.72000000000003C1121.79 222.55000000000004 1121.92 222.41000000000003 1122.09 222.41000000000003C1122.26 222.41000000000003 1122.3899999999999 222.55 1122.3899999999999 222.72000000000003L1122.3899999999999 226.68000000000004C1122.3899999999999 226.86000000000004 1122.2599999999998 227.00000000000003 1122.09 227.00000000000003L1118.6 227.00000000000003C1118.4299999999998 227.00000000000003 1118.3 226.86000000000004 1118.3 226.68000000000004C1118.3 226.51000000000005 1118.43 226.37000000000003 1118.6 226.37000000000003L1121.32 226.37000000000003C1119.31 225.27000000000004 1118 222.98000000000005 1118 220.49000000000004C1118 217.24000000000004 1120.23 214.51000000000005 1123.3 214.00000000000003ZM1128.49 214.63C1130.6200000000001 215.74 1132 218.01999999999998 1132 220.51C1132 223.76 1129.63 226.48999999999998 1126.37 227C1126.35 227 1126.34 227 1126.32 227C1126.1699999999998 227 1126.03 226.89 1126 226.73C1125.98 226.56 1126.1 226.39999999999998 1126.27 226.36999999999998C1129.21 225.90999999999997 1131.35 223.45 1131.36 220.50999999999996C1131.36 218.10999999999996 1129.9399999999998 215.92999999999995 1127.82 215.01999999999995L1127.82 217.95999999999995C1127.82 218.13999999999996 1127.6699999999998 218.27999999999994 1127.49 218.27999999999994C1127.32 218.27999999999994 1127.17 218.13999999999996 1127.17 217.95999999999995L1127.17 214.31999999999996C1127.17 214.13999999999996 1127.3200000000002 213.99999999999997 1127.49 213.99999999999997L1131.52 213.99999999999997C1131.69 213.99999999999997 1131.84 214.13999999999996 1131.84 214.31999999999996C1131.84 214.48999999999995 1131.6899999999998 214.62999999999997 1131.52 214.62999999999997Z " fill-opacity="0" fill="#ffffff" stroke-dasharray="0" stroke-linejoin="miter" stroke-linecap="butt" stroke-opacity="1" stroke="#ffffff" stroke-miterlimit="50" stroke-width="0.6" clip-path="url(&quot;#SvgjsClipPath1022&quot;)" transform="matrix(1,0,0,1,-1113,-208)"></path></svg>