<?xml version="1.0"?>
<svg width="14" height="14" xmlns="http://www.w3.org/2000/svg" xmlns:svg="http://www.w3.org/2000/svg">

 <g>
  <title>Layer 1</title>
  <path fill="#e62b92" d="m12.59,5.44c-0.12,-0.47 -0.31,-0.92 -0.54,-1.34l0.48,-0.48c0.26,-0.26 0.26,-0.7 0,-0.96l-1.24,-1.25c-0.27,-0.26 -0.7,-0.26 -0.96,0l-0.49,0.49c-0.41,-0.24 -0.85,-0.42 -1.33,-0.55l0,-0.67c0.02,-0.37 -0.29,-0.68 -0.67,-0.68l-1.73,0c-0.39,0 -0.68,0.31 -0.68,0.68l0,0.69c-0.47,0.12 -0.92,0.31 -1.34,0.54l-0.48,-0.48c-0.26,-0.26 -0.7,-0.26 -0.96,0l-1.24,1.24c-0.26,0.27 -0.26,0.7 0,0.97l0.48,0.48c-0.23,0.42 -0.42,0.85 -0.54,1.33l-0.67,0c-0.39,-0.01 -0.68,0.3 -0.68,0.67l0,1.76c0,0.36 0.29,0.67 0.68,0.67l0.68,0c0.13,0.46 0.31,0.91 0.55,1.33l-0.48,0.48c-0.27,0.27 -0.27,0.7 0,0.97l1.24,1.24c0.26,0.26 0.69,0.26 0.96,0l0.48,-0.48c0.42,0.23 0.85,0.42 1.33,0.54l0,0.69c0,0.37 0.31,0.68 0.68,0.68l1.76,0c0.37,0 0.68,-0.31 0.68,-0.68l0,-0.69c0.46,-0.12 0.91,-0.31 1.33,-0.54l0.48,0.48c0.27,0.26 0.7,0.26 0.96,0l1.24,-1.24c0.27,-0.27 0.27,-0.7 0,-0.97l-0.48,-0.48c0.24,-0.42 0.42,-0.85 0.55,-1.33l0.68,0c0.37,0 0.68,-0.31 0.68,-0.69l0,-1.74c-0.05,-0.37 -0.36,-0.68 -0.73,-0.68l-0.68,0zm-8.71,1.55c0,-1.71 1.39,-3.11 3.1,-3.11c1.7,0 3.1,1.4 3.1,3.11c0,1.71 -1.4,3.11 -3.1,3.11c-1.71,0 -3.1,-1.4 -3.1,-3.11z" id="SvgjsPath1016"/>
 </g>
</svg>
