<svg id="SvgjsSvg1011" xmlns="http://www.w3.org/2000/svg" version="1.1" xmlns:xlink="http://www.w3.org/1999/xlink" xmlns:svgjs="http://svgjs.com/svgjs" width="18" height="15"><defs id="SvgjsDefs1012"></defs><path id="SvgjsPath1013" d="M517.07 279.37C517.61 279.37 517.98 279.84000000000003 518 280.52C518 281.08 517.75 281.68 517.26 281.89C517.23 282.08 517.21 282.26 517.1899999999999 282.46999999999997C516.9899999999999 284.21 516.7399999999999 286.38 514.7099999999999 286.44L514.7099999999999 287L513.43 287L513.43 286.44L504.73999999999995 286.44L504.73999999999995 287L503.46 287L503.46 286.44L503.37 286.44C501.49 286.44 501.14 284.19 500.87 282.37C500.83 282.2 500.81 282.06 500.79 281.89C500.27000000000004 281.68 500 281.06 500 280.47999999999996C500 279.81999999999994 500.35 279.36999999999995 500.87 279.36999999999995L513.86 279.36999999999995L513.86 274.03C513.86 273.36999999999995 513.41 272.83 512.87 272.83C512.5600000000001 272.83 512.25 273.01 512.0600000000001 273.34C512.0400000000001 273.39 512.0000000000001 273.42999999999995 511.9800000000001 273.45C512.1700000000001 273.63 512.3100000000001 273.84 512.3900000000001 274.09C512.5400000000001 274.5 512.5200000000001 274.94 512.3100000000001 275.28999999999996C512.2500000000001 275.40999999999997 512.1 275.49999999999994 511.96000000000004 275.49999999999994C511.90000000000003 275.49999999999994 511.81000000000006 275.47999999999996 511.75000000000006 275.42999999999995L509.5400000000001 274.15C509.4600000000001 274.09 509.37000000000006 274.01 509.3500000000001 273.9C509.3300000000001 273.79999999999995 509.3300000000001 273.7 509.3900000000001 273.59C509.6400000000001 273.15999999999997 510.1200000000001 272.89 510.6800000000001 272.89C510.8800000000001 272.89 511.1100000000001 272.93 511.3200000000001 273.01C511.3400000000001 272.96999999999997 511.3400000000001 272.95 511.3600000000001 272.93C511.6900000000001 272.35 512.2700000000001 272 512.8900000000001 272C513.9000000000001 272 514.7100000000002 272.91 514.7100000000002 274.03L514.7100000000002 279.36999999999995ZM502.26 281.33C502.13 281.33 502.05 281.40999999999997 502.05 281.53999999999996C502.05 281.65999999999997 502.13 281.73999999999995 502.26 281.73999999999995L515.68 281.73999999999995C515.81 281.73999999999995 515.89 281.65999999999997 515.89 281.53999999999996C515.89 281.40999999999997 515.81 281.33 515.68 281.33ZM511.98 275.08C512.27 274.57 512.02 273.85999999999996 511.42 273.51C511.19 273.37 510.92 273.3 510.7 273.3C510.3 273.3 509.95 273.49 509.77 273.8ZM517.11 280.83C517.21 280.52 517.13 280.22999999999996 517.07 280.16999999999996L500.89000000000004 280.16999999999996C500.83000000000004 280.22999999999996 500.77000000000004 280.53999999999996 500.89000000000004 280.83C500.93000000000006 280.9 501.01000000000005 281.09999999999997 501.14000000000004 281.09999999999997C501.34000000000003 281.09999999999997 501.51000000000005 281.24999999999994 501.55000000000007 281.46C501.5900000000001 281.7 501.63000000000005 281.96999999999997 501.68000000000006 282.23999999999995C501.9700000000001 284.13999999999993 502.2800000000001 285.60999999999996 503.37000000000006 285.60999999999996L514.59 285.60999999999996C515.87 285.60999999999996 516.12 284.33 516.34 282.36999999999995C516.37 282.05999999999995 516.4100000000001 281.7699999999999 516.45 281.47999999999996C516.49 281.27 516.6600000000001 281.11999999999995 516.86 281.11999999999995C517.01 281.11999999999995 517.09 280.87999999999994 517.11 280.8299999999999Z " fill="#80878b" fill-opacity="1" transform="matrix(1,0,0,1,-500,-272)"></path></svg>