<svg id="SvgjsSvg1023" xmlns="http://www.w3.org/2000/svg" version="1.1" xmlns:xlink="http://www.w3.org/1999/xlink" xmlns:svgjs="http://svgjs.com/svgjs" width="12.603553390593333" height="14.5"><defs id="SvgjsDefs1024"></defs><path id="SvgjsPath1025" d="M1089.02 253.27L1089.02 254.22C1089.02 254.65 1088.67 255 1088.24 255L1080.78 255C1080.35 255 1080 254.65 1080 254.22L1080 241.78C1080 241.35 1080.35 241 1080.78 241L1088.24 241C1088.67 241 1089.02 241.35 1089.02 241.78L1089.02 242.73L1088.4 242.73L1088.4 241.78C1088.4 241.69 1088.3300000000002 241.62 1088.24 241.62L1080.78 241.62C1080.69 241.62 1080.62 241.69 1080.62 241.78L1080.62 254.22C1080.62 254.31 1080.6899999999998 254.38 1080.78 254.38L1088.24 254.38C1088.33 254.38 1088.4 254.31 1088.4 254.22L1088.4 253.27ZM1091.02 248L1088 244.98L1087.56 245.42L1089.83 247.69L1082.33 247.69L1082.33 248.31L1089.83 248.31L1087.56 250.58L1088 251.02Z " fill="#e62b92" fill-opacity="1" transform="matrix(1,0,0,1,-1079.6982233047033,-240.75)"></path><path id="SvgjsPath1026" d="M1089.02 253.27L1089.02 254.22C1089.02 254.65 1088.67 255 1088.24 255L1080.78 255C1080.35 255 1080 254.65 1080 254.22L1080 241.78C1080 241.35 1080.35 241 1080.78 241L1088.24 241C1088.67 241 1089.02 241.35 1089.02 241.78L1089.02 242.73L1088.4 242.73L1088.4 241.78C1088.4 241.69 1088.3300000000002 241.62 1088.24 241.62L1080.78 241.62C1080.69 241.62 1080.62 241.69 1080.62 241.78L1080.62 254.22C1080.62 254.31 1080.6899999999998 254.38 1080.78 254.38L1088.24 254.38C1088.33 254.38 1088.4 254.31 1088.4 254.22L1088.4 253.27ZM1091.02 248L1088 244.98L1087.56 245.42L1089.83 247.69L1082.33 247.69L1082.33 248.31L1089.83 248.31L1087.56 250.58L1088 251.02Z " fill-opacity="0" fill="#e62b92" stroke-dasharray="0" stroke-linejoin="miter" stroke-linecap="butt" stroke-opacity="1" stroke="#e62b92" stroke-miterlimit="50" stroke-width="0.5" transform="matrix(1,0,0,1,-1079.6982233047033,-240.75)"></path></svg>