<svg id="SvgjsSvg1000" xmlns="http://www.w3.org/2000/svg" version="1.1" xmlns:xlink="http://www.w3.org/1999/xlink" xmlns:svgjs="http://svgjs.com/svgjs" width="20" height="20"><defs id="SvgjsDefs1001"></defs><path id="SvgjsPath1007" d="M1024 230C1024 224.49 1028.49 220 1034 220C1039.51 220 1044 224.49 1044 230C1044 235.51 1039.51 240 1034 240C1028.49 240 1024 235.51 1024 230ZM1024.99 230C1024.99 234.97 1029.03 239.01 1034 239.01C1038.97 239.01 1043.01 234.97 1043.01 230C1043.01 225.03 1038.97 220.99 1034 220.99C1029.03 220.99 1024.99 225.03 1024.99 230ZM1027.53 232.98C1027.25 232.98 1027.03 232.76 1027.03 232.48L1027.03 229.5C1027.03 229.23 1027.25 229.01 1027.53 229.01L1039.66 229.01C1039.93 229.01 1040.15 229.23 1040.15 229.5L1040.15 232.48C1040.15 232.76 1039.93 232.98 1039.66 232.98ZM1040.75 232.55L1040.75 229.44C1040.75 226.66 1038.97 225.41 1038.89 225.35999999999999C1038.67 225.2 1038.6100000000001 224.89999999999998 1038.76 224.67C1038.92 224.44 1039.22 224.38 1039.45 224.53C1039.54 224.6 1041.74 226.11 1041.74 229.44L1041.74 232.55C1041.74 232.82000000000002 1041.52 233.04000000000002 1041.24 233.04000000000002C1040.97 233.04000000000002 1040.75 232.82000000000002 1040.75 232.55ZM1039.16 231.99L1039.16 230L1028.02 230L1028.02 231.99ZM1029.96 231.7L1029.96 230.28C1029.96 230.15 1030.19 230.04 1030.46 230.04C1030.74 230.04 1030.96 230.15 1030.96 230.28L1030.96 231.7C1030.96 231.82999999999998 1030.74 231.92999999999998 1030.46 231.92999999999998C1030.19 231.92999999999998 1029.96 231.82999999999998 1029.96 231.7ZM1039.28 228.37C1039.56 228.37 1039.78 228.15 1039.78 227.87C1039.78 226.95000000000002 1039.22 226.49 1038.62 226.01C1038.54 225.94 1038.4499999999998 225.87 1038.36 225.79999999999998C1037.54 225.10999999999999 1037.4399999999998 224.64999999999998 1037.9199999999998 223.76C1038.05 223.51999999999998 1037.9599999999998 223.22 1037.7199999999998 223.09C1037.4699999999998 222.96 1037.1699999999998 223.05 1037.0399999999997 223.29C1036.3399999999997 224.6 1036.5399999999997 225.57 1037.7199999999998 226.56C1037.8199999999997 226.64000000000001 1037.9099999999999 226.71 1037.9999999999998 226.79C1038.5599999999997 227.23999999999998 1038.7899999999997 227.44 1038.7899999999997 227.87C1038.7899999999997 228.15 1039.0099999999998 228.37 1039.2799999999997 228.37Z " fill="#d4d6d7" fill-opacity="1" transform="matrix(1,0,0,1,-1024,-220)"></path></svg>