<svg id="SvgjsSvg1000" xmlns="http://www.w3.org/2000/svg" version="1.1" xmlns:xlink="http://www.w3.org/1999/xlink" xmlns:svgjs="http://svgjs.com/svgjs" width="21" height="12"><defs id="SvgjsDefs1001"></defs><path id="SvgjsPath1007" d="M439.25 278C439.25 276.34 437.94 275 436.33 275L424.66999999999996 275C423.05999999999995 275 421.74999999999994 276.34 421.74999999999994 278L421.74999999999994 278.67C420.74999999999994 278.94 419.99999999999994 279.90000000000003 419.99999999999994 281L419.99999999999994 286.4C419.99999999999994 286.73999999999995 420.25999999999993 287 420.5799999999999 287L440.4199999999999 287C440.7399999999999 287 440.9999999999999 286.74 440.9999999999999 286.4L440.9999999999999 281C440.9999999999999 279.9 440.2499999999999 278.94 439.2499999999999 278.67ZM436.33 276.2C437.28999999999996 276.2 438.08 277.02 438.08 278L438.08 279.3C437.40999999999997 279.54 436.91999999999996 280.21000000000004 436.91999999999996 281L436.91999999999996 282.51L424.08 282.51L424.08 281C424.08 280.21 423.59 279.56 422.91999999999996 279.3L422.91999999999996 278C422.91999999999996 277.02 423.71 276.2 424.66999999999996 276.2ZM437.5 285.8L437.5 281C437.5 280.33 438.01 279.8 438.67 279.8C439.32 279.8 439.83000000000004 280.33 439.83000000000004 281L439.83000000000004 285.8ZM421.17 281C421.17 280.33 421.68 279.8 422.33000000000004 279.8C422.99000000000007 279.8 423.50000000000006 280.33 423.50000000000006 281L423.50000000000006 285.8L421.1700000000001 285.8ZM424.08 285.8L424.08 283.11L436.91999999999996 283.11L436.91999999999996 285.8Z " fill="#80878b" fill-opacity="1" transform="matrix(1,0,0,1,-420,-275)"></path></svg>