<svg id="SvgjsSvg1015" xmlns="http://www.w3.org/2000/svg" version="1.1" xmlns:xlink="http://www.w3.org/1999/xlink" xmlns:svgjs="http://svgjs.com/svgjs" width="6" height="11"><defs id="SvgjsDefs1016"><clipPath id="SvgjsClipPath1020"><path id="SvgjsPath1019" d="M379 191L379 186L385 186L385 191ZM382 189.5L384 187L380 187Z " fill="#ffffff"></path></clipPath><clipPath id="SvgjsClipPath1024"><path id="SvgjsPath1023" d="M379 185L379 180L385 180L385 185ZM380 183.5L384 183.5L382 181Z " fill="#ffffff"></path></clipPath></defs><path id="SvgjsPath1017" d="M382 189.5L384 187L380 187Z " fill="#d4d6d7" fill-opacity="1" transform="matrix(1,0,0,1,-379,-180)"></path><path id="SvgjsPath1018" d="M382 189.5L384 187L380 187Z " fill-opacity="0" fill="#ffffff" stroke-dasharray="0" stroke-linejoin="round" stroke-linecap="round" stroke-opacity="1" stroke="#d4d6d7" stroke-miterlimit="50" stroke-width="2" clip-path="url(&quot;#SvgjsClipPath1020&quot;)" transform="matrix(1,0,0,1,-379,-180)"></path><path id="SvgjsPath1021" d="M382 181L384 183.5L380 183.5Z " fill="#5e62b92" fill-opacity="1" transform="matrix(1,0,0,1,-379,-180)"></path><path id="SvgjsPath1022" d="M382 181L384 183.5L380 183.5Z " fill-opacity="0" fill="#ffffff" stroke-dasharray="0" stroke-linejoin="round" stroke-linecap="round" stroke-opacity="1" stroke="#e62b92" stroke-miterlimit="50" stroke-width="2" clip-path="url(&quot;#SvgjsClipPath1024&quot;)" transform="matrix(1,0,0,1,-379,-180)"></path></svg>
