<svg id="SvgjsSvg1000" xmlns="http://www.w3.org/2000/svg" version="1.1" xmlns:xlink="http://www.w3.org/1999/xlink" xmlns:svgjs="http://svgjs.com/svgjs" width="6" height="11"><defs id="SvgjsDefs1001"><clipPath id="SvgjsClipPath1010"><path id="SvgjsPath1009" d="M330 183L330 178L336 178L336 183ZM333 181.5L335 179L331 179Z " fill="#ffffff"></path></clipPath><clipPath id="SvgjsClipPath1014"><path id="SvgjsPath1013" d="M330 177L330 172L336 172L336 177ZM331 175.5L335 175.5L333 173Z " fill="#ffffff"></path></clipPath></defs><path id="SvgjsPath1007" d="M333 181.5L335 179L331 179Z " fill="#e62b92" fill-opacity="1" transform="matrix(1,0,0,1,-330,-172)"></path><path id="SvgjsPath1008" d="M333 181.5L335 179L331 179Z " fill-opacity="0" fill="#ffffff" stroke-dasharray="0" stroke-linejoin="round" stroke-linecap="round" stroke-opacity="1" stroke="#e62b92" stroke-miterlimit="50" stroke-width="2" clip-path="url(&quot;#SvgjsClipPath1010&quot;)" transform="matrix(1,0,0,1,-330,-172)"></path><path id="SvgjsPath1011" d="M333 173L335 175.5L331 175.5Z " fill="#d4d6d7" fill-opacity="1" transform="matrix(1,0,0,1,-330,-172)"></path><path id="SvgjsPath1012" d="M333 173L335 175.5L331 175.5Z " fill-opacity="0" fill="#ffffff" stroke-dasharray="0" stroke-linejoin="round" stroke-linecap="round" stroke-opacity="1" stroke="#d4d6d7" stroke-miterlimit="50" stroke-width="2" clip-path="url(&quot;#SvgjsClipPath1014&quot;)" transform="matrix(1,0,0,1,-330,-172)"></path></svg>
