<svg id="SvgjsSvg1009" xmlns="http://www.w3.org/2000/svg" version="1.1" xmlns:xlink="http://www.w3.org/1999/xlink" xmlns:svgjs="http://svgjs.com/svgjs" width="25" height="25"><defs id="SvgjsDefs1010"></defs><path id="SvgjsPath1011" d="M739.91 707.46C740.36 707.01 741.1 707.01 741.55 707.46C742 707.9100000000001 742 708.64 741.55 709.09L739.29 711.34C739.0699999999999 711.5600000000001 738.77 711.6800000000001 738.48 711.6800000000001C738.1800000000001 711.6800000000001 737.89 711.5600000000001 737.66 711.34C737.2099999999999 710.89 737.2099999999999 710.1600000000001 737.66 709.71ZM752.27 697.88C751.98 697.88 751.68 697.77 751.46 697.54C751.01 697.0899999999999 751.01 696.36 751.46 695.91L753.71 693.66C754.1600000000001 693.2099999999999 754.89 693.2099999999999 755.34 693.66C755.7900000000001 694.11 755.7900000000001 694.8399999999999 755.34 695.29L753.09 697.54C752.86 697.77 752.57 697.88 752.27 697.88ZM753.09 707.46L755.34 709.71C755.7900000000001 710.1600000000001 755.7900000000001 710.89 755.34 711.34C755.11 711.5600000000001 754.82 711.6800000000001 754.52 711.6800000000001C754.23 711.6800000000001 753.93 711.5600000000001 753.71 711.34L751.46 709.09C751.01 708.64 751.01 707.9100000000001 751.46 707.46C751.9100000000001 707.01 752.64 707.01 753.09 707.46ZM739.49 702.5C739.49 703.14 738.98 703.65 738.34 703.65L735.15 703.65C734.52 703.65 734 703.14 734 702.5C734 701.86 734.52 701.35 735.15 701.35L738.34 701.35C738.98 701.35 739.49 701.86 739.49 702.5ZM757.85 701.35C758.48 701.35 759 701.86 759 702.5C759 703.14 758.48 703.65 757.85 703.65L754.66 703.65C754.02 703.65 753.51 703.14 753.51 702.5C753.51 701.86 754.02 701.35 754.66 701.35ZM746.5 695.49C745.86 695.49 745.35 694.98 745.35 694.34L745.35 691.15C745.35 690.52 745.86 690 746.5 690C747.14 690 747.65 690.52 747.65 691.15L747.65 694.34C747.65 694.98 747.14 695.49 746.5 695.49ZM746.5 709.51C747.14 709.51 747.65 710.03 747.65 710.66L747.65 713.85C747.65 714.48 747.14 715 746.5 715C745.86 715 745.35 714.48 745.35 713.85L745.35 710.66C745.35 710.03 745.86 709.51 746.5 709.51ZM740.73 697.88C741.02 697.88 741.32 697.77 741.54 697.54C741.99 697.0899999999999 741.99 696.36 741.54 695.91L739.29 693.66C738.8399999999999 693.2099999999999 738.11 693.2099999999999 737.66 693.66C737.2099999999999 694.11 737.2099999999999 694.8399999999999 737.66 695.29L739.91 697.54C740.14 697.77 740.43 697.88 740.73 697.88Z " fill="#5abffa" fill-opacity="1" transform="matrix(1,0,0,1,-734,-690)"></path></svg>