<svg id="SvgjsSvg1020" xmlns="http://www.w3.org/2000/svg" version="1.1" xmlns:xlink="http://www.w3.org/1999/xlink" xmlns:svgjs="http://svgjs.com/svgjs" width="14" height="14"><defs id="SvgjsDefs1021"></defs><path id="SvgjsPath1022" d="M1079.04 205.96C1080.31 207.23000000000002 1081.99 207.93 1083.68 208C1083.68 207.86 1083.68 207.79 1083.75 207.72C1083.89 207.58 1084.11 207.58 1084.25 207.72C1084.32 207.79 1084.39 207.93 1084.32 208C1086.01 207.93 1087.6899999999998 207.23 1088.96 205.96C1090.23 204.69 1090.93 203.01000000000002 1091 201.32000000000002C1090.86 201.32000000000002 1090.79 201.32000000000002 1090.72 201.25000000000003C1090.58 201.11000000000004 1090.58 200.89000000000001 1090.72 200.75000000000003C1090.79 200.68000000000004 1090.93 200.61000000000004 1091 200.68000000000004C1090.93 198.99000000000004 1090.23 197.31000000000003 1088.96 196.04000000000005C1087.69 194.77000000000004 1086.01 194.07000000000005 1084.32 194.00000000000006C1084.32 194.14000000000004 1084.32 194.21000000000006 1084.25 194.28000000000006C1084.11 194.42000000000004 1083.89 194.42000000000004 1083.75 194.28000000000006C1083.68 194.21000000000006 1083.61 194.07000000000005 1083.68 194.00000000000006C1081.99 194.07000000000005 1080.3100000000002 194.77000000000007 1079.04 196.04000000000005C1077.77 197.31000000000006 1077.07 198.99000000000004 1077 200.68000000000004C1077.14 200.68000000000004 1077.21 200.68000000000004 1077.28 200.75000000000003C1077.42 200.89000000000001 1077.42 201.11000000000004 1077.28 201.25000000000003C1077.21 201.32000000000002 1077.1399999999999 201.32000000000002 1077 201.32000000000002C1077.07 203.01000000000002 1077.77 204.69000000000003 1079.04 205.96ZM1086.85 200.96C1086.85 202.51000000000002 1085.58 203.78 1084.04 203.78C1082.49 203.78 1081.22 202.51 1081.22 200.96C1081.22 199.42000000000002 1082.49 198.15 1084.04 198.15C1085.58 198.15 1086.85 199.42000000000002 1086.85 200.96ZM1084.81 195.41733C1086.18258 195.56871999999998 1087.1453 196.12529999999998 1088.05 197.03C1088.96 197.94 1089.52 199.14000000000001 1089.6599999999999 200.33L1088.2599999999998 200.33C1087.9699999999998 198.57000000000002 1086.9199999999998 197.17000000000002 1084.8099999999997 196.88000000000002ZM1084.81 195.41L1084.81 195.41733C1084.78678 195.41477 1084.76345 195.41232 1084.74 195.41ZM1079.88 201.67C1080.17 203.42999999999998 1081.22 204.82999999999998 1083.3300000000002 205.11999999999998L1083.3300000000002 206.51999999999998C1081.92 206.38 1080.94 205.82 1080.0300000000002 204.89999999999998C1079.1100000000001 203.98999999999998 1078.5500000000002 202.78999999999996 1078.4100000000003 201.59999999999997L1079.8800000000003 201.59999999999997Z " fill="#e62b92" fill-opacity="1" transform="matrix(1,0,0,1,-1077,-194)"></path></svg>
