<svg id="SvgjsSvg1008" xmlns="http://www.w3.org/2000/svg" version="1.1" xmlns:xlink="http://www.w3.org/1999/xlink" xmlns:svgjs="http://svgjs.com/svgjs" width="20" height="20"><defs id="SvgjsDefs1009"></defs><path id="SvgjsPath1010" d="M1047 230C1047 224.49 1051.49 220 1057 220C1062.51 220 1067 224.49 1067 230C1067 235.51 1062.51 240 1057 240C1051.49 240 1047 235.51 1047 230ZM1048 230.01C1048 234.97 1052.04 239.01 1057.01 239.01C1061.97 239.01 1066.01 234.97 1066.01 230.01C1066.01 225.04 1061.97 221 1057.01 221C1052.04 221 1048 225.04 1048 230.01ZM1058.11 233.94C1057.86 233.85999999999999 1057.6399999999999 233.74 1057.4499999999998 233.59C1057.2699999999998 233.44 1057.1299999999999 233.26 1057.0299999999997 233.04C1056.9299999999998 232.82999999999998 1056.8799999999997 232.59 1056.8799999999997 232.32999999999998C1056.8799999999997 232.17 1056.8999999999996 232.02999999999997 1056.9299999999996 231.89C1056.9699999999996 231.75 1057.0299999999995 231.61999999999998 1057.1099999999997 231.5C1057.1799999999996 231.39 1057.2899999999997 231.28 1057.4099999999996 231.19C1057.5299999999995 231.1 1057.6799999999996 231.03 1057.8599999999997 230.96C1057.5899999999997 230.84 1057.3999999999996 230.68 1057.2699999999998 230.46C1057.1399999999996 230.25 1057.0699999999997 229.99 1057.0699999999997 229.70000000000002C1057.0699999999997 229.47000000000003 1057.1199999999997 229.26000000000002 1057.2099999999998 229.07000000000002C1057.3099999999997 228.87000000000003 1057.4399999999998 228.71 1057.6 228.56000000000003C1057.77 228.42000000000004 1057.9699999999998 228.31000000000003 1058.1999999999998 228.23000000000002C1058.4299999999998 228.15 1058.6899999999998 228.11 1058.9599999999998 228.11C1059.2299999999998 228.11 1059.4899999999998 228.15 1059.7199999999998 228.23000000000002C1059.9499999999998 228.31000000000003 1060.1499999999999 228.42000000000002 1060.3199999999997 228.56000000000003C1060.4799999999998 228.71000000000004 1060.6099999999997 228.87000000000003 1060.7099999999998 229.07000000000002C1060.7999999999997 229.26000000000002 1060.85 229.47000000000003 1060.85 229.70000000000002C1060.85 229.99 1060.78 230.25000000000003 1060.6499999999999 230.46C1060.5199999999998 230.68 1060.32 230.84 1060.06 230.96C1060.23 231.03 1060.3799999999999 231.1 1060.51 231.19C1060.6299999999999 231.28 1060.73 231.39 1060.81 231.5C1060.8899999999999 231.62 1060.95 231.75 1060.98 231.89C1061.02 232.02999999999997 1061.04 232.17 1061.04 232.32999999999998C1061.04 232.58999999999997 1060.99 232.82999999999998 1060.8899999999999 233.04C1060.79 233.26 1060.6499999999999 233.44 1060.4699999999998 233.59C1060.2799999999997 233.74 1060.0599999999997 233.86 1059.8099999999997 233.94C1059.5499999999997 234.02 1059.2699999999998 234.06 1058.9599999999998 234.06C1058.6499999999999 234.06 1058.37 234.02 1058.11 233.94ZM1053.01 233.1L1054.1299999999999 233.1L1054.1299999999999 230.16C1054.1299999999999 230.02 1054.1299999999999 229.87 1054.1399999999999 229.71L1053.4799999999998 230.26000000000002C1053.4399999999998 230.29000000000002 1053.3899999999999 230.32000000000002 1053.3499999999997 230.33C1053.3099999999997 230.35000000000002 1053.2699999999998 230.36 1053.2299999999998 230.36C1053.1599999999999 230.36 1053.0999999999997 230.34 1053.0399999999997 230.31C1052.9899999999998 230.28 1052.9499999999998 230.25 1052.9199999999998 230.21L1052.5299999999997 229.69L1054.3399999999997 228.17L1055.3699999999997 228.17L1055.3699999999997 233.1L1056.3299999999997 233.1L1056.3299999999997 234L1053.0099999999998 234ZM1059.32 233.06C1059.4199999999998 233.02 1059.5 232.96 1059.57 232.89000000000001C1059.6399999999999 232.82000000000002 1059.6799999999998 232.73000000000002 1059.71 232.63000000000002C1059.74 232.53000000000003 1059.76 232.42000000000002 1059.76 232.31000000000003C1059.76 232.18000000000004 1059.75 232.07000000000002 1059.72 231.96000000000004C1059.69 231.86000000000004 1059.65 231.77000000000004 1059.59 231.70000000000005C1059.53 231.62000000000003 1059.4399999999998 231.57000000000005 1059.34 231.53000000000006C1059.24 231.48000000000005 1059.11 231.46000000000006 1058.9599999999998 231.46000000000006C1058.8099999999997 231.46000000000006 1058.6799999999998 231.48000000000008 1058.5799999999997 231.53000000000006C1058.4799999999998 231.57000000000005 1058.3899999999996 231.62000000000006 1058.3299999999997 231.70000000000005C1058.2699999999998 231.77000000000004 1058.2299999999998 231.86000000000004 1058.1999999999996 231.96000000000004C1058.1699999999996 232.07000000000005 1058.1599999999996 232.18000000000004 1058.1599999999996 232.31000000000003C1058.1599999999996 232.42000000000004 1058.1799999999996 232.53000000000003 1058.2099999999996 232.63000000000002C1058.2399999999996 232.73000000000002 1058.2799999999995 232.82000000000002 1058.3499999999997 232.89000000000001C1058.4199999999996 232.96 1058.4999999999998 233.02 1058.5999999999997 233.06C1058.6999999999996 233.11 1058.8199999999997 233.13 1058.9599999999996 233.13C1059.0999999999997 233.13 1059.2199999999996 233.10999999999999 1059.3199999999995 233.06ZM1059.3 230.45C1059.3899999999999 230.41 1059.46 230.35 1059.51 230.26999999999998C1059.56 230.2 1059.59 230.10999999999999 1059.61 230.01999999999998C1059.6299999999999 229.92 1059.6399999999999 229.82 1059.6399999999999 229.71999999999997C1059.6399999999999 229.62999999999997 1059.6299999999999 229.53999999999996 1059.6 229.45999999999998C1059.58 229.36999999999998 1059.54 229.29999999999998 1059.49 229.23C1059.43 229.16 1059.36 229.10999999999999 1059.27 229.07C1059.19 229.03 1059.08 229.01 1058.96 229.01C1058.83 229.01 1058.73 229.03 1058.64 229.07C1058.5600000000002 229.10999999999999 1058.49 229.16 1058.43 229.23C1058.38 229.29999999999998 1058.3400000000001 229.36999999999998 1058.3200000000002 229.45999999999998C1058.2900000000002 229.54 1058.2800000000002 229.62999999999997 1058.2800000000002 229.71999999999997C1058.2800000000002 229.81999999999996 1058.2900000000002 229.91999999999996 1058.3100000000002 230.01999999999998C1058.3300000000002 230.10999999999999 1058.3600000000001 230.2 1058.41 230.26999999999998C1058.46 230.35 1058.53 230.40999999999997 1058.6200000000001 230.45C1058.71 230.5 1058.8200000000002 230.51999999999998 1058.96 230.51999999999998C1059.1000000000001 230.51999999999998 1059.21 230.49999999999997 1059.3 230.45ZM1053 227L1053 225L1061 225L1061 227Z " fill="#d4d6d7" fill-opacity="1" transform="matrix(1,0,0,1,-1047,-220)"></path></svg>