<svg id="SvgjsSvg1027" xmlns="http://www.w3.org/2000/svg" version="1.1" xmlns:xlink="http://www.w3.org/1999/xlink" xmlns:svgjs="http://svgjs.com/svgjs" width="100" height="80"><defs id="SvgjsDefs1028"><clipPath id="SvgjsClipPath1031"><path id="SvgjsPath1030" d="M300 417C300 415.89543 300.89543 415 302 415L398 415C399.10457 415 400 415.89543 400 417L400 493C400 494.10457 399.10457 495 398 495L302 495C300.89543 495 300 494.10457 300 493Z " fill="#ffffff"></path></clipPath></defs><path id="SvgjsPath1029" d="M300 417C300 415.89543 300.89543 415 302 415L398 415C399.10457 415 400 415.89543 400 417L400 493C400 494.10457 399.10457 495 398 495L302 495C300.89543 495 300 494.10457 300 493Z " fill-opacity="0" fill="#ffffff" stroke-dasharray="0" stroke-linejoin="miter" stroke-linecap="butt" stroke-opacity="1" stroke="#d4d6d7" stroke-miterlimit="50" stroke-width="2" clip-path="url(&quot;#SvgjsClipPath1031&quot;)" transform="matrix(1,0,0,1,-300,-415)"></path><path id="SvgjsPath1032" d="M354.07 442.32L353.82 442.77L353.82 443.43L332.46999999999997 443.43L332.09999999999997 443.58L319.99999999999994 456.4L320.35999999999996 457.27L321.36999999999995 457.27L321.36999999999995 472L322.37999999999994 472L322.37999999999994 465.59L330.2799999999999 465.59L330.2799999999999 472L331.2899999999999 472L331.2899999999999 457.27L353.81999999999994 457.27L353.81999999999994 472L354.81999999999994 472L354.81999999999994 445.32L361.80999999999995 441.29L368.78999999999996 445.32L368.78999999999996 472L369.79999999999995 472L369.79999999999995 457.54L377.41999999999996 460.93L377.41999999999996 472L378.41999999999996 472L378.41999999999996 461.38L379.59999999999997 461.9L379.99999999999994 460.96L369.79999999999995 456.41999999999996L369.79999999999995 442.77L369.53999999999996 442.32L362.05999999999995 438L361.55999999999995 438ZM353.82 444.45L353.82 454.39L323.28999999999996 454.39L332.67999999999995 444.45ZM361.81 439.03L368.79 443.07L368.79 444.14L362.06 440.25L361.56 440.25L354.82 444.14L354.82 443.07ZM330.28 457.27L330.28 465.25L322.38 465.25L322.38 457.27ZM351.97 466.97L351.97 459.87L345.11 459.87L345.11 466.97ZM341.52 466.97L341.52 459.87L334.65999999999997 459.87L334.65999999999997 466.97ZM365.22 454.56L365.22 447.46L358.37 447.46L358.37 454.56ZM365.22 466.97L365.22 459.87L358.37 459.87L358.37 466.97ZM364.88 447.8L364.88 454.22L358.7 454.22L358.7 447.8ZM364.88 460.21L364.88 466.63L358.7 466.63L358.7 460.21ZM351.63 460.21L351.63 466.63L345.45 466.63L345.45 460.21ZM341.18 460.21L341.18 466.63L335 466.63L335 460.21ZM353.82 455.42L353.82 456.25L321.55 456.25L322.33 455.42ZM329.1 472L329.1 467.28L328.77000000000004 467.28L328.77000000000004 472ZM326.75 468.9L326.75 465.65999999999997L326.42 465.65999999999997L326.42 468.9ZM324.06 472L324.06 467.28L324.4 467.28L324.4 472Z " fill="#80878b" fill-opacity="1" transform="matrix(1,0,0,1,-300,-415)"></path></svg>