<?xml version="1.0" encoding="UTF-8" standalone="no"?>
<svg width="18px" height="15px" viewBox="0 0 18 15" version="1.1" xmlns="http://www.w3.org/2000/svg" xmlns:xlink="http://www.w3.org/1999/xlink">
    <!-- Generator: sketchtool 39.1 (31720) - http://www.bohemiancoding.com/sketch -->
    <title>D8780371-7836-4508-9244-AFBF10228C28</title>
    <desc>Created with sketchtool.</desc>
    <defs></defs>
    <g id="tenantDashboard" stroke="none" stroke-width="1" fill="none" fill-rule="evenodd">
        <g id="propertyDetails" transform="translate(-592.000000, -335.000000)" fill="#80878B">
            <g id="table" transform="translate(130.000000, 163.000000)">
                <g id="mainDescription" transform="translate(382.000000, 170.000000)">
                    <g id="propertyIcons">
                        <g id="shower" transform="translate(80.000000, 0.000000)">
                            <path d="M15.6827586,11.3310345 L2.25517241,11.3310345 C2.13103448,11.3310345 2.04827586,11.4137931 2.04827586,11.537931 C2.04827586,11.662069 2.13103448,11.7448276 2.25517241,11.7448276 L15.6827586,11.7448276 C15.8068966,11.7448276 15.8896552,11.662069 15.8896552,11.537931 C15.8896552,11.4137931 15.8068966,11.3310345 15.6827586,11.3310345 L15.6827586,11.3310345 Z M17.0689655,9.36551724 L14.7103448,9.36551724 L14.7103448,4.02758621 C14.7103448,2.91034483 13.9034483,2 12.8896552,2 C12.2689655,2 11.6896552,2.35172414 11.3586207,2.93103448 C11.337931,2.95172414 11.337931,2.97241379 11.3172414,3.0137931 C11.1103448,2.93103448 10.8827586,2.88965517 10.6758621,2.88965517 C10.1172414,2.88965517 9.64137931,3.15862069 9.39310345,3.59310345 C9.33103448,3.69655172 9.33103448,3.8 9.35172414,3.90344828 C9.37241379,4.00689655 9.45517241,4.08965517 9.53793103,4.15172414 L11.7517241,5.43448276 C11.8137931,5.47586207 11.8965517,5.49655172 11.9586207,5.49655172 C12.1034483,5.49655172 12.2482759,5.4137931 12.3103448,5.28965517 C12.5172414,4.93793103 12.537931,4.50344828 12.3931034,4.08965517 C12.3103448,3.84137931 12.1655172,3.63448276 11.9793103,3.44827586 C12,3.42758621 12.0413793,3.3862069 12.062069,3.34482759 C12.2482759,3.0137931 12.5586207,2.82758621 12.8689655,2.82758621 C13.4068966,2.82758621 13.862069,3.36551724 13.862069,4.02758621 L13.862069,9.36551724 L0.868965517,9.36551724 C0.351724138,9.36551724 0,9.82068966 0,10.4827586 C0,11.062069 0.268965517,11.6827586 0.786206897,11.8896552 C0.806896552,12.0551724 0.827586207,12.2 0.868965517,12.3655172 C1.13793103,14.1862069 1.48965517,16.4413793 3.37241379,16.4413793 L3.45517241,16.4413793 L3.45517241,17 L4.73793103,17 L4.73793103,16.4413793 L13.4275862,16.4413793 L13.4275862,17 L14.7103448,17 L14.7103448,16.4413793 C16.737931,16.3793103 16.9862069,14.2068966 17.1931034,12.4689655 C17.2137931,12.262069 17.2344828,12.0758621 17.2551724,11.8896552 C17.7517241,11.6827586 18,11.0827586 18,10.5241379 C17.9793103,9.84137931 17.6068966,9.36551724 17.0689655,9.36551724 L17.0689655,9.36551724 Z M11.9793103,5.08275862 L9.76551724,3.8 C9.95172414,3.48965517 10.3034483,3.30344828 10.6965517,3.30344828 C10.9241379,3.30344828 11.1931034,3.36551724 11.4206897,3.51034483 C12.0206897,3.86206897 12.2689655,4.56551724 11.9793103,5.08275862 L11.9793103,5.08275862 Z M17.1103448,10.8344828 C17.0896552,10.8758621 17.0068966,11.1241379 16.862069,11.1241379 C16.6551724,11.1241379 16.4896552,11.2689655 16.4482759,11.4758621 C16.4068966,11.7655172 16.3655172,12.0551724 16.3448276,12.3655172 C16.1172414,14.3310345 15.8689655,15.6137931 14.5862069,15.6137931 L3.37241379,15.6137931 C2.27586207,15.6137931 1.96551724,14.1448276 1.67586207,12.2413793 C1.63448276,11.9724138 1.59310345,11.7034483 1.55172414,11.4551724 C1.51034483,11.2482759 1.34482759,11.1034483 1.13793103,11.1034483 C1.0137931,11.1034483 0.931034483,10.8965517 0.889655172,10.8344828 C0.765517241,10.5448276 0.827586207,10.2344828 0.889655172,10.1724138 L17.0689655,10.1724138 C17.1310345,10.2344828 17.2137931,10.5241379 17.1103448,10.8344828 L17.1103448,10.8344828 Z" id="Shape-Copy-2"></path>
                        </g>
                    </g>
                </g>
            </g>
        </g>
    </g>
</svg>