<?xml version="1.0" encoding="UTF-8" standalone="no"?>
<svg width="18px" height="12px" viewBox="0 0 18 12" version="1.1" xmlns="http://www.w3.org/2000/svg" xmlns:xlink="http://www.w3.org/1999/xlink">
    <!-- Generator: sketchtool 39.1 (31720) - http://www.bohemiancoding.com/sketch -->
    <title>DD4AF859-A10B-4F79-B6D6-35DD3149425D</title>
    <desc>Created with sketchtool.</desc>
    <defs></defs>
    <g id="tenantDashboard" stroke="none" stroke-width="1" fill="none" fill-rule="evenodd">
        <g id="propertyDetails" transform="translate(-554.000000, -338.000000)" fill="#80878B">
            <g id="table" transform="translate(130.000000, 163.000000)">
                <g id="mainDescription" transform="translate(382.000000, 170.000000)">
                    <g id="propertyIcons">
                        <g id="bed" transform="translate(42.000000, 0.000000)">
                            <path d="M17.454375,11.2595 L1.090875,11.2595 L1.090875,5.545625 C1.090875,5.244125 0.84675,5 0.54525,5 C0.244125,5 0,5.244125 0,5.545625 L0,16.45625 C0,16.75775 0.244125,17.0015 0.54525,17.0015 C0.84675,17.0015 1.090875,16.75775 1.090875,16.45625 L1.090875,14.494625 L16.909125,14.494625 L16.909125,16.45625 C16.909125,16.75775 17.15325,17.0015 17.454375,17.0015 C17.755875,17.0015 18,16.75775 18,16.45625 L18,11.805125 C18,11.504 17.755875,11.2595 17.454375,11.2595 Z M2.4165,10.880375 L5.715,10.880375 C6.21675,10.880375 6.62475,10.472375 6.62475,9.971 L6.62475,9.58475 C6.62475,9.083 6.21675,8.675 5.715,8.675 L2.4165,8.675 C1.915125,8.675 1.50675,9.083 1.50675,9.58475 L1.50675,9.971 C1.507125,10.472375 1.915125,10.880375 2.4165,10.880375 Z" id="Combined-Shape-Copy"></path>
                        </g>
                    </g>
                </g>
            </g>
        </g>
    </g>
</svg>