<?xml version="1.0" encoding="UTF-8" standalone="no"?>
<svg width="22px" height="12px" viewBox="0 0 22 12" version="1.1" xmlns="http://www.w3.org/2000/svg" xmlns:xlink="http://www.w3.org/1999/xlink">
    <!-- Generator: sketchtool 39.1 (31720) - http://www.bohemiancoding.com/sketch -->
    <title>6D75B10B-7CB8-47D0-A52D-864FBF79A32C</title>
    <desc>Created with sketchtool.</desc>
    <defs></defs>
    <g id="tenantDashboard" stroke="none" stroke-width="1" fill="none" fill-rule="evenodd">
        <g id="propertyDetails" transform="translate(-512.000000, -338.000000)" fill="#80878B">
            <g id="table" transform="translate(130.000000, 163.000000)">
                <g id="mainDescription" transform="translate(382.000000, 170.000000)">
                    <g id="propertyIcons">
                        <g id="sofa">
                            <path d="M19.433334,8.60400013 L19.433334,7.94444455 C19.433334,6.31911116 18.1142229,5 16.4888895,5 L4.71111128,5 C3.08577789,5 1.76666673,6.31911116 1.76666673,7.94444455 L1.76666673,8.60400013 C0.753777805,8.86311125 0,9.80533351 0,10.8888891 L0,16.1888893 C0,16.5186671 0.25911112,16.7777782 0.58888891,16.7777782 L2.35555564,16.7777782 L4.12222237,16.7777782 L17.0777784,16.7777782 L18.8444451,16.7777782 L20.6111119,16.7777782 C20.9408896,16.7777782 21.2000008,16.5186671 21.2000008,16.1888893 L21.2000008,10.8888891 C21.2000008,9.80533351 20.446223,8.86311125 19.433334,8.60400013 L19.433334,8.60400013 Z M18.2555562,15.6000004 L17.6666673,15.6000004 L17.6666673,12.6555558 L17.6666673,10.8888891 C17.6666673,10.2293335 18.1848895,9.71111128 18.8444451,9.71111128 C19.5040007,9.71111128 20.0222229,10.2293335 20.0222229,10.8888891 L20.0222229,15.6000004 L18.2555562,15.6000004 L18.2555562,15.6000004 Z M4.71111128,6.17777782 L16.4888895,6.17777782 C17.4546673,6.17777782 18.2555562,6.97866674 18.2555562,7.94444455 L18.2555562,9.2164446 C17.5724451,9.45200016 17.0777784,10.1115557 17.0777784,10.8888891 L17.0777784,12.3728892 L16.7715562,12.3728892 L4.4284446,12.3728892 L4.12222237,12.3728892 L4.12222237,10.8888891 C4.12222237,10.1115557 3.62755569,9.47555572 2.94444455,9.2164446 L2.94444455,7.94444455 C2.94444455,6.97866674 3.74533347,6.17777782 4.71111128,6.17777782 L4.71111128,6.17777782 Z M1.17777782,15.6000004 L1.17777782,10.8888891 C1.17777782,10.2293335 1.69600006,9.71111128 2.35555564,9.71111128 C3.01511122,9.71111128 3.53333346,10.2293335 3.53333346,10.8888891 L3.53333346,12.6555558 L3.53333346,15.6000004 L2.94444455,15.6000004 L1.17777782,15.6000004 L1.17777782,15.6000004 Z M16.4888895,15.6000004 L4.71111128,15.6000004 L4.12222237,15.6000004 L4.12222237,12.9617781 L17.0777784,12.9617781 L17.0777784,15.6000004 L16.4888895,15.6000004 L16.4888895,15.6000004 Z"></path>
                        </g>
                    </g>
                </g>
            </g>
        </g>
    </g>
</svg>